Nokyung-Bold.ufo
<glyph name="exclam" format="2">
  <advance width="688"/>
  <unicode hex="0021"/>
  <outline>
    <contour>
      <point x="341" y="447" type="curve" smooth="yes"/>
      <point x="362" y="447"/>
      <point x="383" y="452"/>
      <point x="385" y="463" type="curve" smooth="yes"/>
      <point x="474" y="1031" type="line" smooth="yes"/>
      <point x="478" y="1055"/>
      <point x="478" y="1249"/>
      <point x="478" y="1291" type="curve" smooth="yes"/>
      <point x="478" y="1326"/>
      <point x="427" y="1340"/>
      <point x="345" y="1340" type="curve" smooth="yes"/>
      <point x="262" y="1340"/>
      <point x="210" y="1329"/>
      <point x="210" y="1291" type="curve" smooth="yes"/>
      <point x="210" y="1249"/>
      <point x="210" y="1055"/>
      <point x="214" y="1031" type="curve" smooth="yes"/>
      <point x="299" y="463" type="line" smooth="yes"/>
      <point x="301" y="452"/>
      <point x="321" y="447"/>
    </contour>
    <contour>
      <point x="344" y="-20" type="curve" smooth="yes"/>
      <point x="434" y="-20"/>
      <point x="508" y="55"/>
      <point x="508" y="159" type="curve" smooth="yes"/>
      <point x="508" y="263"/>
      <point x="434" y="338"/>
      <point x="344" y="338" type="curve" smooth="yes"/>
      <point x="256" y="338"/>
      <point x="180" y="263"/>
      <point x="180" y="159" type="curve" smooth="yes"/>
      <point x="180" y="55"/>
      <point x="256" y="-20"/>
    </contour>
  </outline>
</glyph>
<glyph name="ampersand" format="2">
  <advance width="1133"/>
  <unicode hex="0026"/>
  <outline>
    <contour>
      <point x="886" y="502" type="line"/>
      <point x="833" y="362"/>
      <point x="598" y="159"/>
      <point x="451" y="159" type="curve" smooth="yes"/>
      <point x="355" y="159"/>
      <point x="280" y="215"/>
      <point x="280" y="309" type="curve" smooth="yes"/>
      <point x="280" y="400"/>
      <point x="344" y="457"/>
      <point x="489" y="585" type="curve" smooth="yes"/>
      <point x="640" y="718"/>
      <point x="773" y="866"/>
      <point x="773" y="985" type="curve" smooth="yes"/>
      <point x="773" y="1137"/>
      <point x="650" y="1241"/>
      <point x="481" y="1241" type="curve" smooth="yes"/>
      <point x="306" y="1241"/>
      <point x="159" y="1137"/>
      <point x="159" y="970" type="curve" smooth="yes"/>
      <point x="159" y="875"/>
      <point x="221" y="795"/>
      <point x="493" y="451" type="curve" smooth="yes"/>
      <point x="728" y="154"/>
      <point x="868" y="-21"/>
      <point x="911" y="-21" type="curve" smooth="yes"/>
      <point x="941" y="-21"/>
      <point x="1048" y="48"/>
      <point x="1078" y="75" type="curve"/>
      <point x="999" y="109"/>
      <point x="804" y="347"/>
      <point x="508" y="728" type="curve" smooth="yes"/>
      <point x="408" y="856"/>
      <point x="351" y="930"/>
      <point x="351" y="978" type="curve" smooth="yes"/>
      <point x="351" y="1037"/>
      <point x="404" y="1085"/>
      <point x="468" y="1085" type="curve" smooth="yes"/>
      <point x="535" y="1085"/>
      <point x="581" y="1038"/>
      <point x="581" y="972" type="curve" smooth="yes"/>
      <point x="581" y="915"/>
      <point x="525" y="837"/>
      <point x="380" y="702" type="curve" smooth="yes"/>
      <point x="157" y="494"/>
      <point x="75" y="417"/>
      <point x="75" y="288" type="curve" smooth="yes"/>
      <point x="75" y="101"/>
      <point x="202" y="-21"/>
      <point x="439" y="-21" type="curve" smooth="yes"/>
      <point x="675" y="-21"/>
      <point x="934" y="221"/>
      <point x="999" y="355" type="curve"/>
    </contour>
  </outline>
</glyph>
<glyph name="quotesingle" format="2">
  <advance width="568"/>
  <unicode hex="0027"/>
  <outline>
    <contour>
      <point x="282" y="692" type="curve" smooth="yes"/>
      <point x="307" y="692"/>
      <point x="333" y="697"/>
      <point x="337" y="718" type="curve" smooth="yes"/>
      <point x="397" y="1068"/>
      <point x="423" y="1220"/>
      <point x="423" y="1271" type="curve" smooth="yes"/>
      <point x="423" y="1306"/>
      <point x="346" y="1340"/>
      <point x="284" y="1340" type="curve" smooth="yes"/>
      <point x="221" y="1340"/>
      <point x="145" y="1309"/>
      <point x="145" y="1271" type="curve" smooth="yes"/>
      <point x="145" y="1219"/>
      <point x="167" y="1068"/>
      <point x="227" y="718" type="curve" smooth="yes"/>
      <point x="231" y="697"/>
      <point x="256" y="692"/>
    </contour>
  </outline>
</glyph>
<glyph name="comma" format="2">
  <advance width="688"/>
  <unicode hex="002C"/>
  <outline>
    <contour>
      <point x="526" y="101" type="curve" smooth="yes"/>
      <point x="526" y="271"/>
      <point x="443" y="338"/>
      <point x="348" y="338" type="curve" smooth="yes"/>
      <point x="257" y="338"/>
      <point x="180" y="261"/>
      <point x="180" y="152" type="curve" smooth="yes"/>
      <point x="180" y="48"/>
      <point x="225" y="-20"/>
      <point x="289" y="-20" type="curve" smooth="yes"/>
      <point x="327" y="-20"/>
      <point x="344" y="13"/>
      <point x="355" y="13" type="curve" smooth="yes"/>
      <point x="369" y="13"/>
      <point x="377" y="-4"/>
      <point x="377" y="-41" type="curve" smooth="yes"/>
      <point x="377" y="-167"/>
      <point x="307" y="-286"/>
      <point x="220" y="-395" type="curve" smooth="yes"/>
      <point x="215" y="-401"/>
      <point x="212" y="-406"/>
      <point x="212" y="-408" type="curve" smooth="yes"/>
      <point x="212" y="-411"/>
      <point x="213" y="-413"/>
      <point x="215" y="-415" type="curve" smooth="yes"/>
      <point x="216" y="-416"/>
      <point x="260" y="-460"/>
      <point x="261" y="-461" type="curve" smooth="yes"/>
      <point x="263" y="-463"/>
      <point x="265" y="-464"/>
      <point x="267" y="-464" type="curve" smooth="yes"/>
      <point x="269" y="-464"/>
      <point x="274" y="-460"/>
      <point x="278" y="-456" type="curve" smooth="yes"/>
      <point x="413" y="-321"/>
      <point x="526" y="-122"/>
    </contour>
  </outline>
</glyph>
<glyph name="period" format="2">
  <advance width="688"/>
  <unicode hex="002E"/>
  <outline>
    <contour>
      <point x="508" y="159" type="curve" smooth="yes"/>
      <point x="508" y="263"/>
      <point x="434" y="338"/>
      <point x="344" y="338" type="curve" smooth="yes"/>
      <point x="256" y="338"/>
      <point x="180" y="263"/>
      <point x="180" y="159" type="curve" smooth="yes"/>
      <point x="180" y="55"/>
      <point x="256" y="-20"/>
      <point x="344" y="-20" type="curve" smooth="yes"/>
      <point x="434" y="-20"/>
      <point x="508" y="55"/>
    </contour>
  </outline>
</glyph>
<glyph name="one" format="2">
  <advance width="1003"/>
  <unicode hex="0031"/>
  <anchor x="502" y="-84" name="L"/>
  <anchor x="502" y="1279" name="U"/>
  <outline>
    <contour>
      <point x="155" y="0" type="line"/>
      <point x="899" y="0" type="line"/>
      <point x="899" y="196" type="line"/>
      <point x="641" y="196" type="line"/>
      <point x="641" y="1221" type="line"/>
      <point x="411" y="1221" type="line"/>
      <point x="148" y="1068" type="line"/>
      <point x="177" y="851" type="line"/>
      <point x="411" y="978" type="line"/>
      <point x="411" y="196" type="line"/>
      <point x="155" y="196" type="line"/>
    </contour>
  </outline>
</glyph>
<glyph name="question" format="2">
  <advance width="952"/>
  <unicode hex="003F"/>
  <outline>
    <contour>
      <point x="857" y="1024" type="curve" smooth="yes"/>
      <point x="857" y="1228"/>
      <point x="698" y="1340"/>
      <point x="480" y="1340" type="curve" smooth="yes"/>
      <point x="285" y="1340"/>
      <point x="135" y="1194"/>
      <point x="96" y="1090" type="curve" smooth="yes"/>
      <point x="95" y="1087"/>
      <point x="94" y="1084"/>
      <point x="94" y="1081" type="curve" smooth="yes"/>
      <point x="94" y="1059"/>
      <point x="120" y="1037"/>
      <point x="150" y="1018" type="curve" smooth="yes"/>
      <point x="175" y="1002"/>
      <point x="192" y="994"/>
      <point x="205" y="994" type="curve" smooth="yes"/>
      <point x="216" y="994"/>
      <point x="224" y="1000"/>
      <point x="231" y="1011" type="curve" smooth="yes"/>
      <point x="274" y="1078"/>
      <point x="343" y="1152"/>
      <point x="480" y="1152" type="curve" smooth="yes"/>
      <point x="588" y="1152"/>
      <point x="652" y="1100"/>
      <point x="652" y="978" type="curve" smooth="yes"/>
      <point x="652" y="823"/>
      <point x="371" y="742"/>
      <point x="371" y="724" type="curve" smooth="yes"/>
      <point x="371" y="695"/>
      <point x="371" y="478"/>
      <point x="371" y="468" type="curve" smooth="yes"/>
      <point x="371" y="435"/>
      <point x="431" y="430"/>
      <point x="480" y="430" type="curve" smooth="yes"/>
      <point x="524" y="430"/>
      <point x="589" y="440"/>
      <point x="589" y="469" type="curve" smooth="yes"/>
      <point x="589" y="478"/>
      <point x="589" y="572"/>
      <point x="589" y="644" type="curve" smooth="yes"/>
      <point x="589" y="661"/>
      <point x="857" y="744"/>
    </contour>
    <contour>
      <point x="644" y="159" type="curve" smooth="yes"/>
      <point x="644" y="263"/>
      <point x="570" y="338"/>
      <point x="480" y="338" type="curve" smooth="yes"/>
      <point x="392" y="338"/>
      <point x="316" y="263"/>
      <point x="316" y="159" type="curve" smooth="yes"/>
      <point x="316" y="55"/>
      <point x="392" y="-20"/>
      <point x="480" y="-20" type="curve" smooth="yes"/>
      <point x="570" y="-20"/>
      <point x="644" y="55"/>
    </contour>
  </outline>
</glyph>
<glyph name="C" format="2">
  <advance width="1158"/>
  <unicode hex="0043"/>
  <anchor x="623" y="0" name="H"/>
  <anchor x="623" y="-84" name="L"/>
  <anchor x="623" y="1279" name="U"/>
  <outline>
    <contour>
      <point x="1016" y="339" type="line"/>
      <point x="924" y="245"/>
      <point x="786" y="184"/>
      <point x="660" y="184" type="curve" smooth="yes"/>
      <point x="444" y="184"/>
      <point x="314" y="345"/>
      <point x="314" y="614" type="curve" smooth="yes"/>
      <point x="314" y="898"/>
      <point x="466" y="1041"/>
      <point x="669" y="1041" type="curve" smooth="yes"/>
      <point x="778" y="1041"/>
      <point x="880" y="1007"/>
      <point x="986" y="924" type="curve"/>
      <point x="1045" y="1124" type="line"/>
      <point x="925" y="1211"/>
      <point x="810" y="1241"/>
      <point x="656" y="1241" type="curve" smooth="yes"/>
      <point x="345" y="1241"/>
      <point x="75" y="1024"/>
      <point x="75" y="594" type="curve" smooth="yes"/>
      <point x="75" y="217"/>
      <point x="285" y="-21"/>
      <point x="631" y="-21" type="curve" smooth="yes"/>
      <point x="774" y="-21"/>
      <point x="955" y="35"/>
      <point x="1058" y="117" type="curve"/>
    </contour>
  </outline>
</glyph>
<glyph name="F" format="2">
  <advance width="1003"/>
  <unicode hex="0046"/>
  <anchor x="527" y="-84" name="L"/>
  <anchor x="527" y="1279" name="U"/>
  <outline>
    <contour>
      <point x="376" y="719" type="line"/>
      <point x="376" y="1028" type="line"/>
      <point x="911" y="1028" type="line"/>
      <point x="911" y="1221" type="line"/>
      <point x="125" y="1221" type="line"/>
      <point x="138" y="1154"/>
      <point x="138" y="1017"/>
      <point x="138" y="853" type="curve" smooth="yes"/>
      <point x="138" y="364" type="line" smooth="yes"/>
      <point x="138" y="199"/>
      <point x="138" y="67"/>
      <point x="125" y="0" type="curve"/>
      <point x="389" y="0" type="line"/>
      <point x="376" y="61"/>
      <point x="376" y="186"/>
      <point x="376" y="341" type="curve" smooth="yes"/>
      <point x="376" y="531" type="line"/>
      <point x="840" y="531" type="line"/>
      <point x="840" y="719" type="line"/>
    </contour>
  </outline>
</glyph>
<glyph name="I" format="2">
  <advance width="874"/>
  <unicode hex="0049"/>
  <anchor x="435" y="0" name="H"/>
  <anchor x="431" y="-84" name="L"/>
  <anchor x="595" y="0" name="O"/>
  <anchor x="848" y="1003" name="R"/>
  <anchor x="435" y="1279" name="U"/>
  <outline>
    <contour>
      <point x="109" y="1221" type="line"/>
      <point x="109" y="1049" type="line"/>
      <point x="309" y="1049" type="line"/>
      <point x="309" y="171" type="line"/>
      <point x="109" y="171" type="line"/>
      <point x="109" y="0" type="line"/>
      <point x="748" y="0" type="line"/>
      <point x="748" y="171" type="line"/>
      <point x="548" y="171" type="line"/>
      <point x="548" y="1049" type="line"/>
      <point x="748" y="1049" type="line"/>
      <point x="748" y="1221" type="line"/>
    </contour>
  </outline>
</glyph>
<glyph name="K" format="2">
  <advance width="1195"/>
  <unicode hex="004B"/>
  <anchor x="268" y="0" name="H"/>
  <anchor x="619" y="-84" name="L"/>
  <anchor x="606" y="1279" name="U"/>
  <outline>
    <contour>
      <point x="828" y="0" type="line"/>
      <point x="1137" y="0" type="line"/>
      <point x="513" y="693" type="line"/>
      <point x="325" y="611" type="line"/>
    </contour>
    <contour>
      <point x="125" y="0" type="curve"/>
      <point x="376" y="0" type="line"/>
      <point x="376" y="1221" type="line"/>
      <point x="125" y="1221" type="line"/>
      <point x="138" y="1154"/>
      <point x="138" y="1022"/>
      <point x="138" y="857" type="curve" smooth="yes"/>
      <point x="138" y="364" type="line" smooth="yes"/>
      <point x="138" y="199"/>
      <point x="138" y="67"/>
    </contour>
    <contour>
      <point x="310" y="612" type="line"/>
      <point x="416" y="593" type="line"/>
      <point x="484" y="565" type="line"/>
      <point x="1070" y="1221" type="line"/>
      <point x="789" y="1221" type="line"/>
    </contour>
  </outline>
</glyph>
<glyph name="Z" format="2">
  <advance width="1045"/>
  <unicode hex="005A"/>
  <anchor x="531" y="-84" name="L"/>
  <anchor x="531" y="1279" name="U"/>
  <outline>
    <contour>
      <point x="54" y="0" type="line"/>
      <point x="974" y="0" type="line"/>
      <point x="974" y="209" type="line"/>
      <point x="907" y="197"/>
      <point x="774" y="192"/>
      <point x="610" y="192" type="curve" smooth="yes"/>
      <point x="347" y="192" type="line"/>
      <point x="949" y="1074" type="line"/>
      <point x="949" y="1221" type="line"/>
      <point x="105" y="1221" type="line"/>
      <point x="105" y="1012" type="line"/>
      <point x="178" y="1026"/>
      <point x="287" y="1028"/>
      <point x="468" y="1028" type="curve" smooth="yes"/>
      <point x="663" y="1028" type="line"/>
      <point x="54" y="134" type="line"/>
    </contour>
  </outline>
</glyph>
<glyph name="bracketright" format="2">
  <advance width="802"/>
  <unicode hex="005D"/>
  <outline>
    <contour>
      <point x="137" y="1036" type="line"/>
      <point x="341" y="1036" type="line"/>
      <point x="341" y="-185" type="line"/>
      <point x="137" y="-185" type="line"/>
      <point x="137" y="-305" type="line"/>
      <point x="551" y="-305" type="line"/>
      <point x="551" y="1156" type="line"/>
      <point x="137" y="1156" type="line"/>
    </contour>
  </outline>
</glyph>
<glyph name="a" format="2">
  <advance width="1007"/>
  <unicode hex="0061"/>
  <anchor x="823" y="0" name="H"/>
  <anchor x="510" y="-84" name="L"/>
  <anchor x="991" y="0" name="O"/>
  <anchor x="957" y="836" name="R"/>
  <anchor x="510" y="920" name="U"/>
  <outline>
    <contour>
      <point x="936" y="0" type="line"/>
      <point x="901" y="94"/>
      <point x="878" y="189"/>
      <point x="878" y="309" type="curve" smooth="yes"/>
      <point x="878" y="635" type="line" smooth="yes"/>
      <point x="878" y="768"/>
      <point x="733" y="869"/>
      <point x="514" y="869" type="curve" smooth="yes"/>
      <point x="373" y="869"/>
      <point x="275" y="831"/>
      <point x="180" y="794" type="curve"/>
      <point x="175" y="726"/>
      <point x="171" y="614"/>
      <point x="171" y="578" type="curve"/>
      <point x="269" y="646"/>
      <point x="354" y="682"/>
      <point x="453" y="682" type="curve" smooth="yes"/>
      <point x="568" y="682"/>
      <point x="644" y="656"/>
      <point x="644" y="594" type="curve" smooth="yes"/>
      <point x="644" y="552" type="line"/>
      <point x="609" y="551"/>
      <point x="476" y="543"/>
      <point x="418" y="537" type="curve" smooth="yes"/>
      <point x="160" y="512"/>
      <point x="84" y="366"/>
      <point x="84" y="238" type="curve" smooth="yes"/>
      <point x="84" y="101"/>
      <point x="205" y="-21"/>
      <point x="372" y="-21" type="curve" smooth="yes"/>
      <point x="470" y="-21"/>
      <point x="575" y="19"/>
      <point x="669" y="113" type="curve"/>
      <point x="681" y="66"/>
      <point x="700" y="23"/>
      <point x="711" y="0" type="curve"/>
    </contour>
    <contour>
      <point x="644" y="397" type="curve"/>
      <point x="644" y="297" type="line"/>
      <point x="563" y="188"/>
      <point x="502" y="171"/>
      <point x="433" y="171" type="curve" smooth="yes"/>
      <point x="364" y="171"/>
      <point x="318" y="214"/>
      <point x="318" y="268" type="curve" smooth="yes"/>
      <point x="318" y="323"/>
      <point x="353" y="369"/>
      <point x="468" y="382" type="curve" smooth="yes"/>
      <point x="511" y="387"/>
      <point x="610" y="396"/>
    </contour>
  </outline>
</glyph>
<glyph name="c" format="2">
  <advance width="854"/>
  <unicode hex="0063"/>
  <anchor x="464" y="0" name="H"/>
  <anchor x="481" y="-84" name="L"/>
  <anchor x="853" y="836" name="R"/>
  <anchor x="481" y="920" name="U"/>
  <outline>
    <contour>
      <point x="483" y="-21" type="curve" smooth="yes"/>
      <point x="608" y="-21"/>
      <point x="695" y="7"/>
      <point x="779" y="59" type="curve"/>
      <point x="754" y="263" type="line"/>
      <point x="681" y="205"/>
      <point x="616" y="171"/>
      <point x="516" y="171" type="curve" smooth="yes"/>
      <point x="390" y="171"/>
      <point x="309" y="271"/>
      <point x="309" y="418" type="curve" smooth="yes"/>
      <point x="309" y="580"/>
      <point x="400" y="677"/>
      <point x="516" y="677" type="curve" smooth="yes"/>
      <point x="602" y="677"/>
      <point x="659" y="651"/>
      <point x="734" y="599" type="curve"/>
      <point x="771" y="810" type="line"/>
      <point x="710" y="842"/>
      <point x="622" y="869"/>
      <point x="512" y="869" type="curve" smooth="yes"/>
      <point x="247" y="869"/>
      <point x="75" y="670"/>
      <point x="75" y="410" type="curve" smooth="yes"/>
      <point x="75" y="135"/>
      <point x="258" y="-21"/>
    </contour>
  </outline>
</glyph>
<glyph name="f" format="2">
  <advance width="669"/>
  <unicode hex="0066"/>
  <anchor x="318" y="0" name="H"/>
  <anchor x="334" y="-84" name="L"/>
  <anchor x="502" y="1367" name="U"/>
  <outline>
    <contour>
      <point x="25" y="673" type="line"/>
      <point x="192" y="673" type="line"/>
      <point x="192" y="0" type="line"/>
      <point x="451" y="0" type="line"/>
      <point x="433" y="88"/>
      <point x="426" y="251"/>
      <point x="426" y="413" type="curve" smooth="yes"/>
      <point x="426" y="673" type="line"/>
      <point x="640" y="673" type="line"/>
      <point x="640" y="840" type="line"/>
      <point x="426" y="840" type="line"/>
      <point x="426" y="969" type="line" smooth="yes"/>
      <point x="426" y="1105"/>
      <point x="461" y="1160"/>
      <point x="542" y="1160" type="curve" smooth="yes"/>
      <point x="583" y="1160"/>
      <point x="640" y="1139"/>
      <point x="675" y="1105" type="curve"/>
      <point x="723" y="1296" type="line"/>
      <point x="674" y="1328"/>
      <point x="584" y="1354"/>
      <point x="523" y="1354" type="curve" smooth="yes"/>
      <point x="316" y="1354"/>
      <point x="192" y="1229"/>
      <point x="192" y="978" type="curve" smooth="yes"/>
      <point x="192" y="840" type="line"/>
      <point x="25" y="840" type="line"/>
    </contour>
  </outline>
</glyph>
<glyph name="h" format="2">
  <advance width="1032"/>
  <unicode hex="0068"/>
  <anchor x="234" y="0" name="H"/>
  <anchor x="518" y="-84" name="L"/>
  <anchor x="518" y="1367" name="U"/>
  <outline>
    <contour>
      <point x="694" y="0" type="curve"/>
      <point x="928" y="0" type="line"/>
      <point x="928" y="165"/>
      <point x="928" y="422"/>
      <point x="928" y="523" type="curve" smooth="yes"/>
      <point x="928" y="752"/>
      <point x="843" y="869"/>
      <point x="673" y="869" type="curve" smooth="yes"/>
      <point x="553" y="869"/>
      <point x="429" y="816"/>
      <point x="347" y="711" type="curve"/>
      <point x="347" y="737"/>
      <point x="347" y="1084"/>
      <point x="347" y="1338" type="curve"/>
      <point x="100" y="1338" type="line"/>
      <point x="113" y="1266"/>
      <point x="113" y="1124"/>
      <point x="113" y="945" type="curve" smooth="yes"/>
      <point x="113" y="826"/>
      <point x="113" y="336"/>
      <point x="113" y="0" type="curve"/>
      <point x="347" y="0" type="line"/>
      <point x="347" y="485" type="line"/>
      <point x="376" y="571"/>
      <point x="468" y="665"/>
      <point x="564" y="665" type="curve" smooth="yes"/>
      <point x="654" y="665"/>
      <point x="694" y="622"/>
      <point x="694" y="460" type="curve" smooth="yes"/>
      <point x="694" y="376"/>
      <point x="694" y="148"/>
    </contour>
  </outline>
</glyph>
<glyph name="n" format="2">
  <advance width="1041"/>
  <unicode hex="006E"/>
  <anchor x="518" y="0" name="H"/>
  <anchor x="518" y="-84" name="L"/>
  <anchor x="518" y="920" name="U"/>
  <outline>
    <contour>
      <point x="936" y="0" type="line"/>
      <point x="936" y="165"/>
      <point x="936" y="422"/>
      <point x="936" y="523" type="curve" smooth="yes"/>
      <point x="936" y="752"/>
      <point x="834" y="869"/>
      <point x="665" y="869" type="curve" smooth="yes"/>
      <point x="547" y="869"/>
      <point x="449" y="819"/>
      <point x="343" y="698" type="curve"/>
      <point x="337" y="737"/>
      <point x="322" y="819"/>
      <point x="309" y="853" type="curve"/>
      <point x="79" y="853" type="line"/>
      <point x="98" y="795"/>
      <point x="121" y="678"/>
      <point x="121" y="514" type="curve" smooth="yes"/>
      <point x="121" y="395"/>
      <point x="121" y="151"/>
      <point x="121" y="0" type="curve"/>
      <point x="355" y="0" type="line"/>
      <point x="355" y="485" type="line"/>
      <point x="385" y="571"/>
      <point x="477" y="665"/>
      <point x="573" y="665" type="curve" smooth="yes"/>
      <point x="662" y="665"/>
      <point x="702" y="614"/>
      <point x="702" y="460" type="curve" smooth="yes"/>
      <point x="702" y="376"/>
      <point x="702" y="148"/>
      <point x="702" y="0" type="curve"/>
    </contour>
  </outline>
</glyph>
<glyph name="yen" format="2">
  <advance width="1003"/>
  <unicode hex="00A5"/>
  <outline>
    <contour>
      <point x="447" y="468" type="line"/>
      <point x="620" y="548" type="line"/>
      <point x="265" y="1221" type="line"/>
      <point x="-13" y="1221" type="line"/>
      <point x="80" y="1095"/>
      <point x="136" y="1001"/>
      <point x="201" y="890" type="curve" smooth="yes"/>
    </contour>
    <contour>
      <point x="370" y="0" type="curve"/>
      <point x="634" y="0" type="line"/>
      <point x="621" y="67"/>
      <point x="621" y="199"/>
      <point x="621" y="364" type="curve" smooth="yes"/>
      <point x="621" y="581" type="line"/>
      <point x="383" y="581" type="line"/>
      <point x="383" y="364" type="line" smooth="yes"/>
      <point x="383" y="199"/>
      <point x="383" y="67"/>
    </contour>
    <contour>
      <point x="100" y="296" type="line"/>
      <point x="903" y="296" type="line"/>
      <point x="903" y="472" type="line"/>
      <point x="100" y="472" type="line"/>
    </contour>
    <contour>
      <point x="100" y="560" type="line"/>
      <point x="903" y="560" type="line"/>
      <point x="903" y="736" type="line"/>
      <point x="100" y="736" type="line"/>
    </contour>
    <contour>
      <point x="557" y="468" type="line"/>
      <point x="807" y="890" type="line" smooth="yes"/>
      <point x="871" y="998"/>
      <point x="919" y="1078"/>
      <point x="1016" y="1221" type="curve"/>
      <point x="747" y="1221" type="line"/>
      <point x="395" y="548" type="line"/>
    </contour>
  </outline>
</glyph>
<glyph name="brokenbar" format="2">
  <advance width="695"/>
  <unicode hex="00A6"/>
  <outline>
    <contour>
      <point x="450" y="1354" type="line"/>
      <point x="450" y="557" type="line"/>
      <point x="245" y="557" type="line"/>
      <point x="245" y="1354" type="line"/>
    </contour>
    <contour>
      <point x="450" y="294" type="line"/>
      <point x="450" y="-503" type="line"/>
      <point x="245" y="-503" type="line"/>
      <point x="245" y="294" type="line"/>
    </contour>
  </outline>
</glyph>
<glyph name="plusminus" format="2">
  <advance width="1003"/>
  <unicode hex="00B1"/>
  <outline>
    <contour>
      <point x="414" y="1141" type="line"/>
      <point x="414" y="393" type="line"/>
      <point x="589" y="393" type="line"/>
      <point x="589" y="1141" type="line"/>
    </contour>
    <contour>
      <point x="130" y="673" type="line"/>
      <point x="874" y="673" type="line"/>
      <point x="874" y="849" type="line"/>
      <point x="130" y="849" type="line"/>
    </contour>
    <contour>
      <point x="130" y="134" type="line"/>
      <point x="874" y="134" type="line"/>
      <point x="874" y="309" type="line"/>
      <point x="130" y="309" type="line"/>
    </contour>
  </outline>
</glyph>
<glyph name="paragraph" format="2">
  <advance width="924"/>
  <unicode hex="00B6"/>
  <outline>
    <contour>
      <point x="874" y="1099" type="line"/>
      <point x="874" y="1221" type="line"/>
      <point x="385" y="1221" type="line" smooth="yes"/>
      <point x="236" y="1221"/>
      <point x="42" y="1155"/>
      <point x="42" y="922" type="curve" smooth="yes"/>
      <point x="42" y="690"/>
      <point x="237" y="623"/>
      <point x="368" y="623" type="curve"/>
      <point x="368" y="0" type="line"/>
      <point x="506" y="0" type="line"/>
      <point x="506" y="1099" type="line"/>
      <point x="640" y="1099" type="line"/>
      <point x="640" y="0" type="line"/>
      <point x="777" y="0" type="line"/>
      <point x="777" y="1099" type="line"/>
    </contour>
  </outline>
</glyph>
<glyph name="questiondown" format="2">
  <advance width="952"/>
  <unicode hex="00BF"/>
  <outline>
    <contour>
      <point x="94" y="-174" type="curve" smooth="yes"/>
      <point x="94" y="-378"/>
      <point x="253" y="-490"/>
      <point x="471" y="-490" type="curve" smooth="yes"/>
      <point x="666" y="-490"/>
      <point x="816" y="-344"/>
      <point x="855" y="-240" type="curve" smooth="yes"/>
      <point x="856" y="-237"/>
      <point x="857" y="-234"/>
      <point x="857" y="-231" type="curve" smooth="yes"/>
      <point x="857" y="-209"/>
      <point x="831" y="-187"/>
      <point x="801" y="-168" type="curve" smooth="yes"/>
      <point x="776" y="-152"/>
      <point x="759" y="-144"/>
      <point x="746" y="-144" type="curve" smooth="yes"/>
      <point x="735" y="-144"/>
      <point x="727" y="-150"/>
      <point x="720" y="-161" type="curve" smooth="yes"/>
      <point x="677" y="-228"/>
      <point x="608" y="-302"/>
      <point x="471" y="-302" type="curve" smooth="yes"/>
      <point x="363" y="-302"/>
      <point x="299" y="-250"/>
      <point x="299" y="-128" type="curve" smooth="yes"/>
      <point x="299" y="27"/>
      <point x="580" y="108"/>
      <point x="580" y="126" type="curve" smooth="yes"/>
      <point x="580" y="155"/>
      <point x="580" y="372"/>
      <point x="580" y="382" type="curve" smooth="yes"/>
      <point x="580" y="415"/>
      <point x="520" y="420"/>
      <point x="471" y="420" type="curve" smooth="yes"/>
      <point x="427" y="420"/>
      <point x="362" y="410"/>
      <point x="362" y="381" type="curve" smooth="yes"/>
      <point x="362" y="372"/>
      <point x="362" y="278"/>
      <point x="362" y="206" type="curve" smooth="yes"/>
      <point x="362" y="189"/>
      <point x="94" y="106"/>
    </contour>
    <contour>
      <point x="307" y="691" type="curve" smooth="yes"/>
      <point x="307" y="587"/>
      <point x="381" y="512"/>
      <point x="471" y="512" type="curve" smooth="yes"/>
      <point x="559" y="512"/>
      <point x="635" y="587"/>
      <point x="635" y="691" type="curve" smooth="yes"/>
      <point x="635" y="795"/>
      <point x="559" y="870"/>
      <point x="471" y="870" type="curve" smooth="yes"/>
      <point x="381" y="870"/>
      <point x="307" y="795"/>
    </contour>
  </outline>
</glyph>
<glyph name="AE" format="2">
  <advance width="1531"/>
  <unicode hex="00C6"/>
  <anchor x="844" y="-84" name="L"/>
  <anchor x="844" y="1279" name="U"/>
  <outline>
    <contour>
      <point x="1434" y="0" type="line"/>
      <point x="1434" y="205" type="line"/>
      <point x="1369" y="193"/>
      <point x="1265" y="192"/>
      <point x="1105" y="192" type="curve" smooth="yes"/>
      <point x="974" y="192" type="line"/>
      <point x="974" y="543" type="line"/>
      <point x="1346" y="543" type="line"/>
      <point x="1346" y="732" type="line"/>
      <point x="974" y="732" type="line"/>
      <point x="974" y="1028" type="line"/>
      <point x="1409" y="1028" type="line"/>
      <point x="1409" y="1221" type="line"/>
      <point x="615" y="1221" type="line"/>
      <point x="164" y="297" type="line" smooth="yes"/>
      <point x="87" y="139"/>
      <point x="49" y="68"/>
      <point x="8" y="0" type="curve"/>
      <point x="257" y="0" type="line"/>
      <point x="736" y="1028" type="line"/>
      <point x="736" y="98"/>
      <point x="734" y="51"/>
      <point x="723" y="0" type="curve"/>
    </contour>
    <contour>
      <point x="884" y="297" type="line"/>
      <point x="833" y="477" type="line"/>
      <point x="384" y="477" type="line"/>
      <point x="334" y="297" type="line"/>
    </contour>
  </outline>
</glyph>
<glyph name="Eth" format="2">
  <advance width="1254"/>
  <unicode hex="00D0"/>
  <anchor x="610" y="-84" name="L"/>
  <anchor x="610" y="1279" name="U"/>
  <outline>
    <contour>
      <point x="150" y="380" type="line" smooth="yes"/>
      <point x="150" y="215"/>
      <point x="150" y="67"/>
      <point x="138" y="0" type="curve"/>
      <point x="255" y="-5"/>
      <point x="440" y="-8"/>
      <point x="522" y="-8" type="curve" smooth="yes"/>
      <point x="781" y="-8"/>
      <point x="1158" y="121"/>
      <point x="1158" y="619" type="curve" smooth="yes"/>
      <point x="1158" y="1149"/>
      <point x="770" y="1229"/>
      <point x="539" y="1229" type="curve" smooth="yes"/>
      <point x="420" y="1229"/>
      <point x="212" y="1226"/>
      <point x="138" y="1221" type="curve"/>
      <point x="150" y="1154"/>
      <point x="150" y="1000"/>
      <point x="150" y="836" type="curve" smooth="yes"/>
    </contour>
    <contour>
      <point x="389" y="193" type="curve"/>
      <point x="389" y="1037" type="line"/>
      <point x="424" y="1039"/>
      <point x="499" y="1042"/>
      <point x="545" y="1042" type="curve" smooth="yes"/>
      <point x="762" y="1042"/>
      <point x="914" y="935"/>
      <point x="914" y="602" type="curve" smooth="yes"/>
      <point x="914" y="298"/>
      <point x="728" y="185"/>
      <point x="542" y="185" type="curve" smooth="yes"/>
      <point x="476" y="185"/>
      <point x="421" y="190"/>
    </contour>
    <contour>
      <point x="9" y="538" type="line"/>
      <point x="674" y="538" type="line"/>
      <point x="674" y="714" type="line"/>
      <point x="9" y="714" type="line"/>
    </contour>
  </outline>
</glyph>
<glyph name="circumflex" format="2">
  <advance width="736"/>
  <unicode hex="02C6"/>
  <outline>
    <contour>
      <point x="201" y="1003" type="line"/>
      <point x="368" y="1195" type="line"/>
      <point x="535" y="1003" type="line"/>
      <point x="736" y="1003" type="line"/>
      <point x="493" y="1338" type="line"/>
      <point x="242" y="1338" type="line"/>
      <point x="0" y="1003" type="line"/>
    </contour>
  </outline>
</glyph>
<glyph name="ogonek" format="2">
  <advance width="405"/>
  <unicode hex="02DB"/>
  <anchor x="314" y="-334" name="L"/>
  <outline>
    <contour>
      <point x="134" y="0" type="line"/>
      <point x="47" y="-42"/>
      <point x="0" y="-101"/>
      <point x="0" y="-188" type="curve" smooth="yes"/>
      <point x="0" y="-288"/>
      <point x="99" y="-368"/>
      <point x="217" y="-368" type="curve" smooth="yes"/>
      <point x="279" y="-368"/>
      <point x="357" y="-341"/>
      <point x="405" y="-293" type="curve"/>
      <point x="380" y="-176" type="line"/>
      <point x="349" y="-212"/>
      <point x="270" y="-238"/>
      <point x="234" y="-238" type="curve" smooth="yes"/>
      <point x="181" y="-238"/>
      <point x="146" y="-209"/>
      <point x="146" y="-155" type="curve" smooth="yes"/>
      <point x="146" y="-96"/>
      <point x="190" y="-54"/>
      <point x="276" y="0" type="curve"/>
    </contour>
  </outline>
</glyph>
<glyph name="tilde" format="2">
  <advance width="694"/>
  <unicode hex="02DC"/>
  <outline>
    <contour>
      <point x="0" y="995" type="curve"/>
      <point x="130" y="995" type="line"/>
      <point x="135" y="1030"/>
      <point x="152" y="1070"/>
      <point x="194" y="1070" type="curve" smooth="yes"/>
      <point x="230" y="1070"/>
      <point x="278" y="1057"/>
      <point x="347" y="1027" type="curve" smooth="yes"/>
      <point x="405" y="1002"/>
      <point x="449" y="986"/>
      <point x="501" y="986" type="curve" smooth="yes"/>
      <point x="614" y="986"/>
      <point x="694" y="1093"/>
      <point x="694" y="1237" type="curve"/>
      <point x="564" y="1237" type="line"/>
      <point x="558" y="1202"/>
      <point x="539" y="1162"/>
      <point x="500" y="1162" type="curve" smooth="yes"/>
      <point x="464" y="1162"/>
      <point x="428" y="1176"/>
      <point x="364" y="1201" type="curve" smooth="yes"/>
      <point x="298" y="1227"/>
      <point x="242" y="1246"/>
      <point x="188" y="1246" type="curve" smooth="yes"/>
      <point x="78" y="1246"/>
      <point x="0" y="1128"/>
    </contour>
  </outline>
</glyph>
<glyph name="hungarumlaut" format="2">
  <advance width="769"/>
  <unicode hex="02DD"/>
  <outline>
    <contour>
      <point x="176" y="1338" type="line"/>
      <point x="0" y="1003" type="line"/>
      <point x="176" y="1003" type="line"/>
      <point x="426" y="1338" type="line"/>
    </contour>
    <contour>
      <point x="518" y="1338" type="line"/>
      <point x="343" y="1003" type="line"/>
      <point x="518" y="1003" type="line"/>
      <point x="769" y="1338" type="line"/>
    </contour>
  </outline>
</glyph>
<glyph name="acutecomb" format="2">
  <unicode hex="0301"/>
  <anchor x="-502" y="1367" name="U"/>
  <anchor x="-451" y="920" name="_U"/>
  <outline>
    <contour>
      <point x="-393" y="1338" type="line"/>
      <point x="-635" y="1003" type="line"/>
      <point x="-435" y="1003" type="line"/>
      <point x="-100" y="1338" type="line"/>
    </contour>
  </outline>
</glyph>
<glyph name="tildecomb" format="2">
  <unicode hex="0303"/>
  <anchor x="-485" y="1246" name="U"/>
  <anchor x="-485" y="920" name="_U"/>
  <outline>
    <contour>
      <point x="-823" y="995" type="curve"/>
      <point x="-694" y="995" type="line"/>
      <point x="-689" y="1030"/>
      <point x="-671" y="1070"/>
      <point x="-630" y="1070" type="curve" smooth="yes"/>
      <point x="-594" y="1070"/>
      <point x="-546" y="1058"/>
      <point x="-477" y="1027" type="curve" smooth="yes"/>
      <point x="-419" y="1001"/>
      <point x="-375" y="986"/>
      <point x="-323" y="986" type="curve" smooth="yes"/>
      <point x="-209" y="986"/>
      <point x="-130" y="1093"/>
      <point x="-130" y="1237" type="curve"/>
      <point x="-259" y="1237" type="line"/>
      <point x="-266" y="1202"/>
      <point x="-284" y="1162"/>
      <point x="-324" y="1162" type="curve" smooth="yes"/>
      <point x="-359" y="1162"/>
      <point x="-396" y="1176"/>
      <point x="-460" y="1201" type="curve" smooth="yes"/>
      <point x="-526" y="1227"/>
      <point x="-581" y="1246"/>
      <point x="-635" y="1246" type="curve" smooth="yes"/>
      <point x="-746" y="1246"/>
      <point x="-823" y="1128"/>
    </contour>
  </outline>
</glyph>
<glyph name="dieresiscomb" format="2">
  <unicode hex="0308"/>
  <anchor x="-485" y="1325" name="U"/>
  <anchor x="-485" y="920" name="_U"/>
  <outline>
    <contour>
      <point x="-426" y="1158" type="curve" smooth="yes"/>
      <point x="-426" y="1071"/>
      <point x="-364" y="1012"/>
      <point x="-280" y="1012" type="curve" smooth="yes"/>
      <point x="-195" y="1012"/>
      <point x="-134" y="1071"/>
      <point x="-134" y="1158" type="curve" smooth="yes"/>
      <point x="-134" y="1243"/>
      <point x="-195" y="1304"/>
      <point x="-280" y="1304" type="curve" smooth="yes"/>
      <point x="-364" y="1304"/>
      <point x="-426" y="1243"/>
    </contour>
    <contour>
      <point x="-836" y="1158" type="curve" smooth="yes"/>
      <point x="-836" y="1071"/>
      <point x="-774" y="1012"/>
      <point x="-690" y="1012" type="curve" smooth="yes"/>
      <point x="-604" y="1012"/>
      <point x="-543" y="1071"/>
      <point x="-543" y="1158" type="curve" smooth="yes"/>
      <point x="-543" y="1243"/>
      <point x="-604" y="1304"/>
      <point x="-690" y="1304" type="curve" smooth="yes"/>
      <point x="-774" y="1304"/>
      <point x="-836" y="1243"/>
    </contour>
  </outline>
</glyph>
<glyph name="pi" format="2">
  <advance width="1172"/>
  <unicode hex="03C0"/>
  <anchor x="582" y="-84" name="L"/>
  <anchor x="582" y="920" name="U"/>
  <outline>
    <contour>
      <point x="1114" y="686" type="line"/>
      <point x="1114" y="853" type="line"/>
      <point x="46" y="853" type="line"/>
      <point x="46" y="686" type="line"/>
      <point x="217" y="686" type="line"/>
      <point x="217" y="0" type="line"/>
      <point x="452" y="0" type="line"/>
      <point x="452" y="686" type="line"/>
      <point x="708" y="686" type="line"/>
      <point x="708" y="490" type="line" smooth="yes"/>
      <point x="708" y="373"/>
      <point x="708" y="258"/>
      <point x="712" y="186" type="curve" smooth="yes"/>
      <point x="716" y="108"/>
      <point x="725" y="48"/>
      <point x="746" y="0" type="curve"/>
      <point x="988" y="0" type="line"/>
      <point x="953" y="88"/>
      <point x="942" y="161"/>
      <point x="942" y="314" type="curve" smooth="yes"/>
      <point x="942" y="686" type="line"/>
    </contour>
  </outline>
</glyph>
<glyph name="uni1981" format="2">
  <advance width="1726"/>
  <unicode hex="1981"/>
  <outline>
    <contour>
      <point x="922" y="421" type="curve" smooth="yes"/>
      <point x="922" y="690"/>
      <point x="718" y="870"/>
      <point x="470" y="870" type="curve" smooth="yes"/>
      <point x="303" y="870"/>
      <point x="193" y="798"/>
      <point x="85" y="677" type="curve" smooth="yes"/>
      <point x="82" y="673"/>
      <point x="80" y="669"/>
      <point x="80" y="665" type="curve" smooth="yes"/>
      <point x="80" y="658"/>
      <point x="84" y="651"/>
      <point x="90" y="647" type="curve"/>
      <point x="225" y="539" type="line"/>
      <point x="229" y="536"/>
      <point x="233" y="535"/>
      <point x="237" y="535" type="curve" smooth="yes"/>
      <point x="243" y="535"/>
      <point x="249" y="538"/>
      <point x="253" y="544" type="curve" smooth="yes"/>
      <point x="297" y="610"/>
      <point x="376" y="655"/>
      <point x="470" y="655" type="curve" smooth="yes"/>
      <point x="591" y="655"/>
      <point x="687" y="594"/>
      <point x="687" y="421" type="curve" smooth="yes"/>
      <point x="687" y="255"/>
      <point x="586" y="195"/>
      <point x="480" y="195" type="curve" smooth="yes"/>
      <point x="376" y="195"/>
      <point x="297" y="239"/>
      <point x="262" y="297" type="curve" smooth="yes"/>
      <point x="258" y="303"/>
      <point x="252" y="307"/>
      <point x="246" y="307" type="curve" smooth="yes"/>
      <point x="242" y="307"/>
      <point x="238" y="306"/>
      <point x="234" y="303" type="curve" smooth="yes"/>
      <point x="90" y="203" type="line" smooth="yes"/>
      <point x="83" y="198"/>
      <point x="80" y="192"/>
      <point x="80" y="185" type="curve" smooth="yes"/>
      <point x="80" y="181"/>
      <point x="81" y="177"/>
      <point x="84" y="173" type="curve" smooth="yes"/>
      <point x="184" y="45"/>
      <point x="272" y="-20"/>
      <point x="480" y="-20" type="curve" smooth="yes"/>
      <point x="719" y="-20"/>
      <point x="922" y="167"/>
    </contour>
    <contour>
      <point x="1643" y="449" type="curve" smooth="yes"/>
      <point x="1643" y="722"/>
      <point x="1437" y="870"/>
      <point x="1178" y="870" type="curve" smooth="yes"/>
      <point x="966" y="870"/>
      <point x="832" y="761"/>
      <point x="731" y="646" type="curve"/>
      <point x="729" y="643"/>
      <point x="728" y="640"/>
      <point x="728" y="636" type="curve" smooth="yes"/>
      <point x="728" y="629"/>
      <point x="732" y="622"/>
      <point x="737" y="616" type="curve" smooth="yes"/>
      <point x="852" y="498" type="line" smooth="yes"/>
      <point x="855" y="495"/>
      <point x="859" y="493"/>
      <point x="863" y="493" type="curve" smooth="yes"/>
      <point x="869" y="493"/>
      <point x="876" y="497"/>
      <point x="880" y="503" type="curve" smooth="yes"/>
      <point x="935" y="586"/>
      <point x="1064" y="655"/>
      <point x="1168" y="655" type="curve" smooth="yes"/>
      <point x="1293" y="655"/>
      <point x="1408" y="565"/>
      <point x="1408" y="409" type="curve" smooth="yes"/>
      <point x="1408" y="291"/>
      <point x="1323" y="147"/>
      <point x="1129" y="147" type="curve" smooth="yes"/>
      <point x="1119" y="147"/>
      <point x="1110" y="140"/>
      <point x="1110" y="130" type="curve" smooth="yes"/>
      <point x="1110" y="-7" type="line" smooth="yes"/>
      <point x="1110" y="-15"/>
      <point x="1119" y="-23"/>
      <point x="1129" y="-23" type="curve" smooth="yes"/>
      <point x="1431" y="-23"/>
      <point x="1643" y="213"/>
    </contour>
    <contour>
      <point x="1673" y="-254" type="curve" smooth="yes"/>
      <point x="1673" y="-8"/>
      <point x="1474" y="147"/>
      <point x="1147" y="147" type="curve"/>
      <point x="1147" y="-23" type="line"/>
      <point x="1319" y="-23"/>
      <point x="1438" y="-102"/>
      <point x="1438" y="-264" type="curve" smooth="yes"/>
      <point x="1438" y="-398"/>
      <point x="1311" y="-502"/>
      <point x="1146" y="-502" type="curve" smooth="yes"/>
      <point x="982" y="-502"/>
      <point x="897" y="-434"/>
      <point x="826" y="-351" type="curve" smooth="yes"/>
      <point x="820" y="-344"/>
      <point x="812" y="-336"/>
      <point x="805" y="-336" type="curve" smooth="yes"/>
      <point x="803" y="-336"/>
      <point x="798" y="-338"/>
      <point x="793" y="-340" type="curve" smooth="yes"/>
      <point x="702" y="-377" type="line" smooth="yes"/>
      <point x="695" y="-380"/>
      <point x="688" y="-389"/>
      <point x="688" y="-396" type="curve" smooth="yes"/>
      <point x="688" y="-398"/>
      <point x="688" y="-400"/>
      <point x="689" y="-401" type="curve" smooth="yes"/>
      <point x="766" y="-545"/>
      <point x="942" y="-690"/>
      <point x="1146" y="-690" type="curve" smooth="yes"/>
      <point x="1446" y="-690"/>
      <point x="1673" y="-507"/>
    </contour>
    <contour>
      <point x="516" y="1038" type="curve" smooth="yes"/>
      <point x="723" y="1038"/>
      <point x="921" y="1274"/>
      <point x="921" y="1436" type="curve" smooth="yes"/>
      <point x="921" y="1446"/>
      <point x="914" y="1455"/>
      <point x="904" y="1455" type="curve" smooth="yes"/>
      <point x="757" y="1455" type="line" smooth="yes"/>
      <point x="749" y="1455"/>
      <point x="742" y="1446"/>
      <point x="742" y="1436" type="curve" smooth="yes"/>
      <point x="742" y="1297"/>
      <point x="638" y="1236"/>
      <point x="516" y="1236" type="curve" smooth="yes"/>
      <point x="506" y="1236"/>
      <point x="497" y="1229"/>
      <point x="497" y="1220" type="curve" smooth="yes"/>
      <point x="497" y="1055" type="line" smooth="yes"/>
      <point x="497" y="1044"/>
      <point x="506" y="1038"/>
    </contour>
    <contour>
      <point x="1147" y="1038" type="curve" smooth="yes"/>
      <point x="1156" y="1038"/>
      <point x="1166" y="1044"/>
      <point x="1166" y="1055" type="curve" smooth="yes"/>
      <point x="1166" y="1220" type="line" smooth="yes"/>
      <point x="1166" y="1229"/>
      <point x="1156" y="1236"/>
      <point x="1147" y="1236" type="curve" smooth="yes"/>
      <point x="1025" y="1236"/>
      <point x="921" y="1297"/>
      <point x="921" y="1436" type="curve" smooth="yes"/>
      <point x="921" y="1446"/>
      <point x="914" y="1455"/>
      <point x="905" y="1455" type="curve" smooth="yes"/>
      <point x="758" y="1455" type="line" smooth="yes"/>
      <point x="748" y="1455"/>
      <point x="742" y="1446"/>
      <point x="742" y="1436" type="curve" smooth="yes"/>
      <point x="742" y="1274"/>
      <point x="939" y="1038"/>
    </contour>
  </outline>
</glyph>
<glyph name="uni1984" format="2">
  <advance width="1666"/>
  <unicode hex="1984"/>
  <outline>
    <component base="uni19A0"/>
    <contour>
      <point x="1407" y="-444" type="curve" smooth="yes"/>
      <point x="1407" y="-277"/>
      <point x="1272" y="-98"/>
      <point x="832" y="-98" type="curve" smooth="yes"/>
      <point x="398" y="-98"/>
      <point x="216" y="-246"/>
      <point x="216" y="-453" type="curve" smooth="yes"/>
      <point x="216" y="-603"/>
      <point x="325" y="-692"/>
      <point x="481" y="-692" type="curve" smooth="yes"/>
      <point x="697" y="-692"/>
      <point x="736" y="-463"/>
      <point x="823" y="-463" type="curve" smooth="yes"/>
      <point x="853" y="-463"/>
      <point x="893" y="-481"/>
      <point x="893" y="-519" type="curve" smooth="yes"/>
      <point x="893" y="-549"/>
      <point x="868" y="-602"/>
      <point x="851" y="-637" type="curve" smooth="yes"/>
      <point x="849" y="-641"/>
      <point x="848" y="-645"/>
      <point x="848" y="-648" type="curve" smooth="yes"/>
      <point x="848" y="-653"/>
      <point x="850" y="-657"/>
      <point x="854" y="-659" type="curve" smooth="yes"/>
      <point x="865" y="-665"/>
      <point x="940" y="-699"/>
      <point x="959" y="-699" type="curve" smooth="yes"/>
      <point x="967" y="-699"/>
      <point x="975" y="-689"/>
      <point x="982" y="-678" type="curve" smooth="yes"/>
      <point x="1014" y="-632"/>
      <point x="1050" y="-561"/>
      <point x="1050" y="-505" type="curve" smooth="yes"/>
      <point x="1050" y="-410"/>
      <point x="956" y="-330"/>
      <point x="823" y="-330" type="curve" smooth="yes"/>
      <point x="619" y="-330"/>
      <point x="625" y="-544"/>
      <point x="501" y="-544" type="curve" smooth="yes"/>
      <point x="447" y="-544"/>
      <point x="419" y="-496"/>
      <point x="419" y="-453" type="curve" smooth="yes"/>
      <point x="419" y="-315"/>
      <point x="522" y="-236"/>
      <point x="832" y="-236" type="curve" smooth="yes"/>
      <point x="1099" y="-236"/>
      <point x="1224" y="-338"/>
      <point x="1224" y="-472" type="curve" smooth="yes"/>
      <point x="1224" y="-529"/>
      <point x="1197" y="-593"/>
      <point x="1178" y="-628" type="curve" smooth="yes"/>
      <point x="1173" y="-637"/>
      <point x="1171" y="-643"/>
      <point x="1171" y="-647" type="curve" smooth="yes"/>
      <point x="1171" y="-650"/>
      <point x="1172" y="-652"/>
      <point x="1175" y="-654" type="curve" smooth="yes"/>
      <point x="1183" y="-659"/>
      <point x="1284" y="-699"/>
      <point x="1300" y="-699" type="curve" smooth="yes"/>
      <point x="1309" y="-699"/>
      <point x="1317" y="-688"/>
      <point x="1326" y="-674" type="curve" smooth="yes"/>
      <point x="1371" y="-604"/>
      <point x="1407" y="-526"/>
    </contour>
  </outline>
</glyph>
<glyph name="uni1985" format="2">
  <advance width="1173"/>
  <unicode hex="1985"/>
  <anchor x="586" y="-100" name="bottom"/>
  <outline>
    <contour>
      <point x="1088" y="400" type="curve" smooth="yes"/>
      <point x="1088" y="690"/>
      <point x="884" y="870"/>
      <point x="586" y="870" type="curve" smooth="yes"/>
      <point x="301" y="870"/>
      <point x="85" y="690"/>
      <point x="85" y="400" type="curve" smooth="yes"/>
      <point x="85" y="193"/>
      <point x="200" y="52"/>
      <point x="335" y="-15" type="curve" smooth="yes"/>
      <point x="339" y="-17"/>
      <point x="345" y="-20"/>
      <point x="347" y="-20" type="curve" smooth="yes"/>
      <point x="354" y="-20"/>
      <point x="359" y="-16"/>
      <point x="365" y="-9" type="curve" smooth="yes"/>
      <point x="476" y="133" type="line" smooth="yes"/>
      <point x="479" y="137"/>
      <point x="479" y="141"/>
      <point x="479" y="145" type="curve" smooth="yes"/>
      <point x="479" y="152"/>
      <point x="476" y="158"/>
      <point x="470" y="161" type="curve" smooth="yes"/>
      <point x="390" y="201"/>
      <point x="320" y="279"/>
      <point x="320" y="400" type="curve" smooth="yes"/>
      <point x="320" y="554"/>
      <point x="422" y="655"/>
      <point x="586" y="655" type="curve" smooth="yes"/>
      <point x="750" y="655"/>
      <point x="853" y="554"/>
      <point x="853" y="400" type="curve" smooth="yes"/>
      <point x="853" y="279"/>
      <point x="782" y="203"/>
      <point x="694" y="164" type="curve" smooth="yes"/>
      <point x="688" y="161"/>
      <point x="684" y="154"/>
      <point x="684" y="147" type="curve" smooth="yes"/>
      <point x="684" y="145"/>
      <point x="685" y="142"/>
      <point x="686" y="140" type="curve" smooth="yes"/>
      <point x="780" y="-11" type="line" smooth="yes"/>
      <point x="783" y="-16"/>
      <point x="788" y="-20"/>
      <point x="794" y="-20" type="curve" smooth="yes"/>
      <point x="797" y="-20"/>
      <point x="801" y="-19"/>
      <point x="805" y="-17" type="curve" smooth="yes"/>
      <point x="959" y="60"/>
      <point x="1088" y="193"/>
    </contour>
  </outline>
</glyph>
<glyph name="uni1987" format="2">
  <advance width="1240"/>
  <unicode hex="1987"/>
  <outline>
    <contour>
      <point x="584" y="-690" type="curve" smooth="yes"/>
      <point x="905" y="-690"/>
      <point x="1165" y="-393"/>
      <point x="1165" y="136" type="curve" smooth="yes"/>
      <point x="1165" y="627"/>
      <point x="968" y="870"/>
      <point x="608" y="870" type="curve" smooth="yes"/>
      <point x="314" y="870"/>
      <point x="85" y="668"/>
      <point x="85" y="359" type="curve" smooth="yes"/>
      <point x="85" y="57"/>
      <point x="204" y="-20"/>
      <point x="315" y="-20" type="curve" smooth="yes"/>
      <point x="392" y="-20"/>
      <point x="461" y="43"/>
      <point x="491" y="85" type="curve" smooth="yes"/>
      <point x="563" y="185"/>
      <point x="590" y="218"/>
      <point x="623" y="218" type="curve" smooth="yes"/>
      <point x="656" y="218"/>
      <point x="667" y="188"/>
      <point x="667" y="157" type="curve" smooth="yes"/>
      <point x="667" y="118"/>
      <point x="634" y="89"/>
      <point x="619" y="77" type="curve" smooth="yes"/>
      <point x="614" y="73"/>
      <point x="610" y="66"/>
      <point x="610" y="60" type="curve" smooth="yes"/>
      <point x="610" y="56"/>
      <point x="611" y="53"/>
      <point x="613" y="51" type="curve" smooth="yes"/>
      <point x="674" y="-38" type="line" smooth="yes"/>
      <point x="678" y="-44"/>
      <point x="683" y="-47"/>
      <point x="689" y="-47" type="curve" smooth="yes"/>
      <point x="692" y="-47"/>
      <point x="697" y="-45"/>
      <point x="705" y="-41" type="curve" smooth="yes"/>
      <point x="778" y="-9"/>
      <point x="833" y="75"/>
      <point x="833" y="183" type="curve" smooth="yes"/>
      <point x="833" y="302"/>
      <point x="761" y="405"/>
      <point x="651" y="405" type="curve" smooth="yes"/>
      <point x="567" y="405"/>
      <point x="522" y="367"/>
      <point x="485" y="320" type="curve" smooth="yes"/>
      <point x="432" y="252"/>
      <point x="400" y="215"/>
      <point x="373" y="215" type="curve" smooth="yes"/>
      <point x="336" y="215"/>
      <point x="310" y="247"/>
      <point x="310" y="359" type="curve" smooth="yes"/>
      <point x="310" y="559"/>
      <point x="424" y="655"/>
      <point x="608" y="655" type="curve" smooth="yes"/>
      <point x="827" y="655"/>
      <point x="930" y="485"/>
      <point x="930" y="136" type="curve" smooth="yes"/>
      <point x="930" y="-308"/>
      <point x="772" y="-502"/>
      <point x="574" y="-502" type="curve" smooth="yes"/>
      <point x="411" y="-502"/>
      <point x="317" y="-428"/>
      <point x="267" y="-350" type="curve" smooth="yes"/>
      <point x="261" y="-341"/>
      <point x="254" y="-335"/>
      <point x="248" y="-335" type="curve" smooth="yes"/>
      <point x="246" y="-335"/>
      <point x="245" y="-335"/>
      <point x="244" y="-336" type="curve" smooth="yes"/>
      <point x="149" y="-374" type="line" smooth="yes"/>
      <point x="141" y="-377"/>
      <point x="135" y="-385"/>
      <point x="135" y="-393" type="curve" smooth="yes"/>
      <point x="135" y="-395"/>
      <point x="135" y="-396"/>
      <point x="136" y="-398" type="curve" smooth="yes"/>
      <point x="187" y="-551"/>
      <point x="332" y="-690"/>
    </contour>
  </outline>
</glyph>
<glyph name="uni198A" format="2">
  <advance width="1391"/>
  <unicode hex="198A"/>
  <outline>
    <contour>
      <point x="510" y="-20" type="curve" smooth="yes"/>
      <point x="901" y="-20"/>
      <point x="1042" y="245"/>
      <point x="1042" y="572" type="curve" smooth="yes"/>
      <point x="1042" y="620"/>
      <point x="1039" y="670"/>
      <point x="1033" y="720" type="curve" smooth="yes"/>
      <point x="1014" y="882"/>
      <point x="998" y="1030"/>
      <point x="998" y="1143" type="curve" smooth="yes"/>
      <point x="998" y="1277"/>
      <point x="1021" y="1361"/>
      <point x="1093" y="1361" type="curve" smooth="yes"/>
      <point x="1173" y="1361"/>
      <point x="1198" y="1294"/>
      <point x="1198" y="1147" type="curve" smooth="yes"/>
      <point x="1198" y="1138"/>
      <point x="1205" y="1129"/>
      <point x="1215" y="1129" type="curve" smooth="yes"/>
      <point x="1322" y="1128" type="line" smooth="yes"/>
      <point x="1331" y="1128"/>
      <point x="1336" y="1138"/>
      <point x="1337" y="1147" type="curve" smooth="yes"/>
      <point x="1343" y="1182"/>
      <point x="1346" y="1219"/>
      <point x="1346" y="1255" type="curve" smooth="yes"/>
      <point x="1346" y="1400"/>
      <point x="1291" y="1540"/>
      <point x="1093" y="1540" type="curve" smooth="yes"/>
      <point x="838" y="1540"/>
      <point x="768" y="1312"/>
      <point x="768" y="1061" type="curve" smooth="yes"/>
      <point x="768" y="983"/>
      <point x="775" y="902"/>
      <point x="785" y="826" type="curve" smooth="yes"/>
      <point x="798" y="728"/>
      <point x="806" y="640"/>
      <point x="806" y="562" type="curve" smooth="yes"/>
      <point x="806" y="317"/>
      <point x="732" y="175"/>
      <point x="526" y="175" type="curve" smooth="yes"/>
      <point x="404" y="175"/>
      <point x="323" y="218"/>
      <point x="323" y="277" type="curve" smooth="yes"/>
      <point x="323" y="345"/>
      <point x="409" y="382"/>
      <point x="474" y="382" type="curve" smooth="yes"/>
      <point x="495" y="382"/>
      <point x="519" y="400"/>
      <point x="519" y="436" type="curve" smooth="yes"/>
      <point x="519" y="492"/>
      <point x="497" y="503"/>
      <point x="476" y="503" type="curve" smooth="yes"/>
      <point x="465" y="503"/>
      <point x="404" y="503"/>
      <point x="386" y="503" type="curve" smooth="yes"/>
      <point x="306" y="503"/>
      <point x="90" y="396"/>
      <point x="90" y="248" type="curve" smooth="yes"/>
      <point x="90" y="65"/>
      <point x="274" y="-20"/>
    </contour>
    <contour>
      <point x="418" y="870" type="curve" smooth="yes"/>
      <point x="234" y="870"/>
      <point x="90" y="782"/>
      <point x="90" y="636" type="curve" smooth="yes"/>
      <point x="90" y="447"/>
      <point x="371" y="382"/>
      <point x="521" y="382" type="curve" smooth="yes"/>
      <point x="530" y="382"/>
      <point x="539" y="390"/>
      <point x="539" y="398" type="curve" smooth="yes"/>
      <point x="539" y="495" type="line" smooth="yes"/>
      <point x="539" y="505"/>
      <point x="530" y="512"/>
      <point x="521" y="512" type="curve" smooth="yes"/>
      <point x="397" y="512"/>
      <point x="323" y="534"/>
      <point x="323" y="606" type="curve" smooth="yes"/>
      <point x="323" y="656"/>
      <point x="366" y="693"/>
      <point x="438" y="693" type="curve" smooth="yes"/>
      <point x="493" y="693"/>
      <point x="534" y="681"/>
      <point x="550" y="673" type="curve" smooth="yes"/>
      <point x="555" y="670"/>
      <point x="560" y="669"/>
      <point x="564" y="669" type="curve" smooth="yes"/>
      <point x="571" y="669"/>
      <point x="578" y="672"/>
      <point x="580" y="677" type="curve" smooth="yes"/>
      <point x="623" y="811" type="line" smooth="yes"/>
      <point x="624" y="813"/>
      <point x="625" y="816"/>
      <point x="625" y="818" type="curve" smooth="yes"/>
      <point x="625" y="824"/>
      <point x="621" y="830"/>
      <point x="616" y="834" type="curve" smooth="yes"/>
      <point x="587" y="855"/>
      <point x="503" y="870"/>
    </contour>
  </outline>
</glyph>
<glyph name="uni198C" format="2">
  <advance width="1181"/>
  <unicode hex="198C"/>
  <outline>
    <contour>
      <point x="1096" y="449" type="curve" smooth="yes"/>
      <point x="1096" y="716"/>
      <point x="887" y="870"/>
      <point x="594" y="870" type="curve" smooth="yes"/>
      <point x="304" y="870"/>
      <point x="85" y="688"/>
      <point x="85" y="393" type="curve" smooth="yes"/>
      <point x="85" y="209"/>
      <point x="187" y="64"/>
      <point x="324" y="-18" type="curve" smooth="yes"/>
      <point x="328" y="-20"/>
      <point x="332" y="-21"/>
      <point x="336" y="-21" type="curve" smooth="yes"/>
      <point x="343" y="-21"/>
      <point x="350" y="-18"/>
      <point x="354" y="-12" type="curve" smooth="yes"/>
      <point x="464" y="129" type="line" smooth="yes"/>
      <point x="467" y="133"/>
      <point x="467" y="137"/>
      <point x="467" y="140" type="curve" smooth="yes"/>
      <point x="467" y="147"/>
      <point x="464" y="153"/>
      <point x="458" y="157" type="curve" smooth="yes"/>
      <point x="358" y="226"/>
      <point x="320" y="312"/>
      <point x="320" y="393" type="curve" smooth="yes"/>
      <point x="320" y="522"/>
      <point x="413" y="655"/>
      <point x="596" y="655" type="curve" smooth="yes"/>
      <point x="764" y="655"/>
      <point x="862" y="551"/>
      <point x="862" y="416" type="curve" smooth="yes"/>
      <point x="862" y="284"/>
      <point x="779" y="197"/>
      <point x="684" y="197" type="curve" smooth="yes"/>
      <point x="674" y="197"/>
      <point x="665" y="191"/>
      <point x="665" y="180" type="curve" smooth="yes"/>
      <point x="665" y="43" type="line" smooth="yes"/>
      <point x="665" y="34"/>
      <point x="674" y="27"/>
      <point x="684" y="27" type="curve" smooth="yes"/>
      <point x="942" y="27"/>
      <point x="1096" y="229"/>
    </contour>
    <contour>
      <point x="1135" y="-225" type="curve" smooth="yes"/>
      <point x="1135" y="7"/>
      <point x="963" y="197"/>
      <point x="686" y="197" type="curve"/>
      <point x="686" y="27" type="line"/>
      <point x="815" y="27"/>
      <point x="898" y="-76"/>
      <point x="898" y="-225" type="curve" smooth="yes"/>
      <point x="898" y="-391"/>
      <point x="755" y="-502"/>
      <point x="587" y="-502" type="curve" smooth="yes"/>
      <point x="427" y="-502"/>
      <point x="337" y="-428"/>
      <point x="277" y="-351" type="curve" smooth="yes"/>
      <point x="269" y="-341"/>
      <point x="260" y="-334"/>
      <point x="253" y="-337" type="curve" smooth="yes"/>
      <point x="152" y="-378" type="line" smooth="yes"/>
      <point x="142" y="-382"/>
      <point x="134" y="-393"/>
      <point x="139" y="-402" type="curve" smooth="yes"/>
      <point x="206" y="-526"/>
      <point x="343" y="-690"/>
      <point x="597" y="-690" type="curve" smooth="yes"/>
      <point x="914" y="-690"/>
      <point x="1135" y="-482"/>
    </contour>
    <contour>
      <point x="642" y="1353" type="curve" smooth="yes"/>
      <point x="776" y="1353"/>
      <point x="866" y="1305"/>
      <point x="903" y="1242" type="curve" smooth="yes"/>
      <point x="910" y="1230"/>
      <point x="919" y="1225"/>
      <point x="927" y="1228" type="curve" smooth="yes"/>
      <point x="1028" y="1265" type="line" smooth="yes"/>
      <point x="1038" y="1269"/>
      <point x="1044" y="1280"/>
      <point x="1041" y="1289" type="curve" smooth="yes"/>
      <point x="1003" y="1403"/>
      <point x="855" y="1540"/>
      <point x="642" y="1540" type="curve" smooth="yes"/>
      <point x="281" y="1540"/>
      <point x="106" y="1274"/>
      <point x="106" y="982" type="curve" smooth="yes"/>
      <point x="106" y="804"/>
      <point x="122" y="659"/>
      <point x="136" y="565" type="curve"/>
      <point x="363" y="670" type="line"/>
      <point x="350" y="744"/>
      <point x="341" y="848"/>
      <point x="341" y="982" type="curve" smooth="yes"/>
      <point x="341" y="1213"/>
      <point x="445" y="1353"/>
    </contour>
  </outline>
</glyph>
<glyph name="uni198F" format="2">
  <advance width="1146"/>
  <unicode hex="198F"/>
  <outline>
    <contour>
      <point x="408" y="-20" type="curve" smooth="yes"/>
      <point x="493" y="-20"/>
      <point x="596" y="1"/>
      <point x="625" y="22" type="curve" smooth="yes"/>
      <point x="631" y="26"/>
      <point x="635" y="32"/>
      <point x="635" y="38" type="curve" smooth="yes"/>
      <point x="635" y="40"/>
      <point x="634" y="43"/>
      <point x="633" y="45" type="curve" smooth="yes"/>
      <point x="580" y="181" type="line" smooth="yes"/>
      <point x="578" y="187"/>
      <point x="571" y="190"/>
      <point x="564" y="190" type="curve" smooth="yes"/>
      <point x="561" y="190"/>
      <point x="558" y="190"/>
      <point x="555" y="188" type="curve" smooth="yes"/>
      <point x="525" y="171"/>
      <point x="474" y="157"/>
      <point x="427" y="157" type="curve" smooth="yes"/>
      <point x="366" y="157"/>
      <point x="325" y="187"/>
      <point x="325" y="225" type="curve" smooth="yes"/>
      <point x="325" y="286"/>
      <point x="374" y="324"/>
      <point x="490" y="324" type="curve" smooth="yes"/>
      <point x="500" y="324"/>
      <point x="509" y="331"/>
      <point x="509" y="341" type="curve" smooth="yes"/>
      <point x="509" y="448" type="line" smooth="yes"/>
      <point x="509" y="456"/>
      <point x="500" y="464"/>
      <point x="490" y="464" type="curve" smooth="yes"/>
      <point x="320" y="464"/>
      <point x="90" y="384"/>
      <point x="90" y="215" type="curve" smooth="yes"/>
      <point x="90" y="79"/>
      <point x="222" y="-20"/>
    </contour>
    <contour>
      <point x="535" y="-690" type="curve" smooth="yes"/>
      <point x="835" y="-690"/>
      <point x="1071" y="-406"/>
      <point x="1071" y="113" type="curve" smooth="yes"/>
      <point x="1071" y="680"/>
      <point x="871" y="870"/>
      <point x="535" y="870" type="curve" smooth="yes"/>
      <point x="294" y="870"/>
      <point x="90" y="774"/>
      <point x="90" y="589" type="curve" smooth="yes"/>
      <point x="90" y="424"/>
      <point x="336" y="324"/>
      <point x="490" y="324" type="curve" smooth="yes"/>
      <point x="500" y="324"/>
      <point x="509" y="331"/>
      <point x="509" y="341" type="curve" smooth="yes"/>
      <point x="509" y="448" type="line" smooth="yes"/>
      <point x="509" y="456"/>
      <point x="500" y="464"/>
      <point x="490" y="464" type="curve" smooth="yes"/>
      <point x="354" y="464"/>
      <point x="325" y="520"/>
      <point x="325" y="569" type="curve" smooth="yes"/>
      <point x="325" y="613"/>
      <point x="370" y="665"/>
      <point x="535" y="665" type="curve" smooth="yes"/>
      <point x="722" y="665"/>
      <point x="836" y="529"/>
      <point x="836" y="113" type="curve" smooth="yes"/>
      <point x="836" y="-331"/>
      <point x="683" y="-502"/>
      <point x="515" y="-502" type="curve" smooth="yes"/>
      <point x="390" y="-502"/>
      <point x="305" y="-418"/>
      <point x="254" y="-352" type="curve" smooth="yes"/>
      <point x="248" y="-344"/>
      <point x="242" y="-339"/>
      <point x="233" y="-339" type="curve" smooth="yes"/>
      <point x="229" y="-339"/>
      <point x="224" y="-340"/>
      <point x="219" y="-343" type="curve" smooth="yes"/>
      <point x="136" y="-386" type="line" smooth="yes"/>
      <point x="129" y="-390"/>
      <point x="122" y="-398"/>
      <point x="122" y="-405" type="curve" smooth="yes"/>
      <point x="122" y="-407"/>
      <point x="122" y="-409"/>
      <point x="123" y="-410" type="curve" smooth="yes"/>
      <point x="180" y="-523"/>
      <point x="312" y="-690"/>
    </contour>
  </outline>
</glyph>
<glyph name="uni1991" format="2">
  <advance width="1166"/>
  <unicode hex="1991"/>
  <outline>
    <contour>
      <point x="1045" y="645" type="curve" smooth="yes"/>
      <point x="1045" y="790"/>
      <point x="910" y="870"/>
      <point x="733" y="870" type="curve" smooth="yes"/>
      <point x="638" y="870"/>
      <point x="565" y="854"/>
      <point x="516" y="827" type="curve" smooth="yes"/>
      <point x="511" y="824"/>
      <point x="507" y="819"/>
      <point x="507" y="812" type="curve" smooth="yes"/>
      <point x="507" y="808"/>
      <point x="508" y="803"/>
      <point x="511" y="798" type="curve" smooth="yes"/>
      <point x="569" y="681" type="line" smooth="yes"/>
      <point x="573" y="673"/>
      <point x="579" y="668"/>
      <point x="587" y="668" type="curve" smooth="yes"/>
      <point x="591" y="668"/>
      <point x="596" y="670"/>
      <point x="601" y="672" type="curve" smooth="yes"/>
      <point x="613" y="678"/>
      <point x="657" y="695"/>
      <point x="723" y="695" type="curve" smooth="yes"/>
      <point x="757" y="695"/>
      <point x="810" y="665"/>
      <point x="810" y="616" type="curve" smooth="yes"/>
      <point x="810" y="534"/>
      <point x="767" y="512"/>
      <point x="671" y="512" type="curve" smooth="yes"/>
      <point x="662" y="512"/>
      <point x="652" y="505"/>
      <point x="652" y="495" type="curve" smooth="yes"/>
      <point x="652" y="388" type="line" smooth="yes"/>
      <point x="652" y="380"/>
      <point x="662" y="372"/>
      <point x="671" y="372" type="curve" smooth="yes"/>
      <point x="841" y="372"/>
      <point x="1045" y="476"/>
    </contour>
    <contour>
      <point x="1059" y="252" type="curve" smooth="yes"/>
      <point x="1059" y="426"/>
      <point x="826" y="512"/>
      <point x="671" y="512" type="curve" smooth="yes"/>
      <point x="662" y="512"/>
      <point x="652" y="505"/>
      <point x="652" y="495" type="curve" smooth="yes"/>
      <point x="652" y="388" type="line" smooth="yes"/>
      <point x="652" y="380"/>
      <point x="662" y="372"/>
      <point x="671" y="372" type="curve" smooth="yes"/>
      <point x="777" y="372"/>
      <point x="824" y="330"/>
      <point x="824" y="272" type="curve" smooth="yes"/>
      <point x="824" y="223"/>
      <point x="780" y="175"/>
      <point x="645" y="175" type="curve" smooth="yes"/>
      <point x="482" y="175"/>
      <point x="352" y="306"/>
      <point x="352" y="737" type="curve" smooth="yes"/>
      <point x="352" y="1204"/>
      <point x="462" y="1361"/>
      <point x="641" y="1361" type="curve" smooth="yes"/>
      <point x="765" y="1361"/>
      <point x="840" y="1286"/>
      <point x="872" y="1229" type="curve" smooth="yes"/>
      <point x="876" y="1222"/>
      <point x="881" y="1215"/>
      <point x="889" y="1215" type="curve" smooth="yes"/>
      <point x="896" y="1215"/>
      <point x="1000" y="1254"/>
      <point x="1010" y="1259" type="curve" smooth="yes"/>
      <point x="1015" y="1261"/>
      <point x="1017" y="1265"/>
      <point x="1017" y="1271" type="curve" smooth="yes"/>
      <point x="1017" y="1274"/>
      <point x="1017" y="1278"/>
      <point x="1013" y="1289" type="curve" smooth="yes"/>
      <point x="965" y="1413"/>
      <point x="844" y="1540"/>
      <point x="631" y="1540" type="curve" smooth="yes"/>
      <point x="319" y="1540"/>
      <point x="117" y="1319"/>
      <point x="117" y="737" type="curve" smooth="yes"/>
      <point x="117" y="186"/>
      <point x="290" y="-20"/>
      <point x="635" y="-20" type="curve" smooth="yes"/>
      <point x="904" y="-20"/>
      <point x="1059" y="70"/>
    </contour>
  </outline>
</glyph>
<glyph name="uni1994" format="2">
  <advance width="1399"/>
  <unicode hex="1994"/>
  <outline>
    <contour>
      <point x="564" y="-20" type="curve" smooth="yes"/>
      <point x="930" y="-20"/>
      <point x="1051" y="234"/>
      <point x="1051" y="551" type="curve" smooth="yes"/>
      <point x="1051" y="606"/>
      <point x="1048" y="662"/>
      <point x="1041" y="720" type="curve" smooth="yes"/>
      <point x="1022" y="882"/>
      <point x="1006" y="1030"/>
      <point x="1006" y="1143" type="curve" smooth="yes"/>
      <point x="1006" y="1277"/>
      <point x="1029" y="1361"/>
      <point x="1101" y="1361" type="curve" smooth="yes"/>
      <point x="1181" y="1361"/>
      <point x="1206" y="1294"/>
      <point x="1206" y="1147" type="curve" smooth="yes"/>
      <point x="1206" y="1138"/>
      <point x="1213" y="1129"/>
      <point x="1223" y="1129" type="curve" smooth="yes"/>
      <point x="1330" y="1128" type="line" smooth="yes"/>
      <point x="1339" y="1128"/>
      <point x="1343" y="1138"/>
      <point x="1345" y="1147" type="curve" smooth="yes"/>
      <point x="1353" y="1182"/>
      <point x="1354" y="1219"/>
      <point x="1354" y="1255" type="curve" smooth="yes"/>
      <point x="1354" y="1400"/>
      <point x="1299" y="1540"/>
      <point x="1101" y="1540" type="curve" smooth="yes"/>
      <point x="846" y="1540"/>
      <point x="777" y="1310"/>
      <point x="777" y="1059" type="curve" smooth="yes"/>
      <point x="777" y="981"/>
      <point x="783" y="902"/>
      <point x="793" y="826" type="curve" smooth="yes"/>
      <point x="805" y="732"/>
      <point x="811" y="647"/>
      <point x="811" y="572" type="curve" smooth="yes"/>
      <point x="811" y="329"/>
      <point x="742" y="195"/>
      <point x="564" y="195" type="curve" smooth="yes"/>
      <point x="415" y="195"/>
      <point x="320" y="305"/>
      <point x="320" y="449" type="curve" smooth="yes"/>
      <point x="320" y="569"/>
      <point x="364" y="637"/>
      <point x="455" y="692" type="curve" smooth="yes"/>
      <point x="461" y="696"/>
      <point x="465" y="702"/>
      <point x="465" y="709" type="curve" smooth="yes"/>
      <point x="465" y="713"/>
      <point x="464" y="717"/>
      <point x="461" y="720" type="curve" smooth="yes"/>
      <point x="355" y="860" type="line" smooth="yes"/>
      <point x="350" y="866"/>
      <point x="343" y="870"/>
      <point x="336" y="870" type="curve" smooth="yes"/>
      <point x="333" y="870"/>
      <point x="329" y="868"/>
      <point x="325" y="866" type="curve" smooth="yes"/>
      <point x="194" y="801"/>
      <point x="85" y="642"/>
      <point x="85" y="449" type="curve" smooth="yes"/>
      <point x="85" y="164"/>
      <point x="274" y="-20"/>
    </contour>
  </outline>
</glyph>
<glyph name="uni1998" format="2">
  <advance width="1694"/>
  <unicode hex="1998"/>
  <anchor x="842" y="-100" name="bottom"/>
  <outline>
    <contour>
      <point x="480" y="-20" type="curve" smooth="yes"/>
      <point x="719" y="-20"/>
      <point x="922" y="167"/>
      <point x="922" y="421" type="curve" smooth="yes"/>
      <point x="922" y="690"/>
      <point x="718" y="870"/>
      <point x="470" y="870" type="curve" smooth="yes"/>
      <point x="303" y="870"/>
      <point x="193" y="798"/>
      <point x="85" y="677" type="curve" smooth="yes"/>
      <point x="82" y="673"/>
      <point x="80" y="669"/>
      <point x="80" y="665" type="curve" smooth="yes"/>
      <point x="80" y="658"/>
      <point x="84" y="651"/>
      <point x="90" y="647" type="curve"/>
      <point x="225" y="539" type="line"/>
      <point x="229" y="536"/>
      <point x="233" y="535"/>
      <point x="237" y="535" type="curve" smooth="yes"/>
      <point x="243" y="535"/>
      <point x="249" y="538"/>
      <point x="253" y="544" type="curve" smooth="yes"/>
      <point x="297" y="610"/>
      <point x="376" y="655"/>
      <point x="470" y="655" type="curve" smooth="yes"/>
      <point x="591" y="655"/>
      <point x="687" y="594"/>
      <point x="687" y="421" type="curve" smooth="yes"/>
      <point x="687" y="255"/>
      <point x="586" y="195"/>
      <point x="480" y="195" type="curve" smooth="yes"/>
      <point x="376" y="195"/>
      <point x="297" y="239"/>
      <point x="262" y="297" type="curve" smooth="yes"/>
      <point x="258" y="303"/>
      <point x="252" y="307"/>
      <point x="246" y="307" type="curve" smooth="yes"/>
      <point x="242" y="307"/>
      <point x="238" y="306"/>
      <point x="234" y="303" type="curve" smooth="yes"/>
      <point x="90" y="203" type="line" smooth="yes"/>
      <point x="83" y="198"/>
      <point x="80" y="192"/>
      <point x="80" y="185" type="curve" smooth="yes"/>
      <point x="80" y="181"/>
      <point x="81" y="177"/>
      <point x="84" y="173" type="curve" smooth="yes"/>
      <point x="184" y="45"/>
      <point x="272" y="-20"/>
    </contour>
    <contour>
      <point x="1182" y="-20" type="curve" smooth="yes"/>
      <point x="1458" y="-20"/>
      <point x="1609" y="194"/>
      <point x="1609" y="421" type="curve" smooth="yes"/>
      <point x="1609" y="694"/>
      <point x="1421" y="870"/>
      <point x="1162" y="870" type="curve" smooth="yes"/>
      <point x="978" y="870"/>
      <point x="824" y="770"/>
      <point x="747" y="669" type="curve"/>
      <point x="862" y="487" type="line"/>
      <point x="918" y="575"/>
      <point x="1025" y="655"/>
      <point x="1162" y="655" type="curve" smooth="yes"/>
      <point x="1267" y="655"/>
      <point x="1374" y="586"/>
      <point x="1374" y="421" type="curve" smooth="yes"/>
      <point x="1374" y="292"/>
      <point x="1308" y="195"/>
      <point x="1182" y="195" type="curve" smooth="yes"/>
      <point x="1144" y="195"/>
      <point x="1109" y="207"/>
      <point x="1084" y="219" type="curve" smooth="yes"/>
      <point x="1082" y="220"/>
      <point x="1079" y="221"/>
      <point x="1076" y="221" type="curve" smooth="yes"/>
      <point x="1069" y="221"/>
      <point x="1062" y="218"/>
      <point x="1059" y="213" type="curve" smooth="yes"/>
      <point x="966" y="51" type="line" smooth="yes"/>
      <point x="964" y="48"/>
      <point x="963" y="45"/>
      <point x="963" y="42" type="curve" smooth="yes"/>
      <point x="963" y="36"/>
      <point x="968" y="31"/>
      <point x="973" y="28" type="curve" smooth="yes"/>
      <point x="1022" y="-7"/>
      <point x="1128" y="-20"/>
    </contour>
  </outline>
</glyph>
<glyph name="uni199C" format="2">
  <advance width="1666"/>
  <unicode hex="199C"/>
  <outline>
    <contour>
      <point x="241" y="-406" type="curve" smooth="yes"/>
      <point x="241" y="-603"/>
      <point x="402" y="-690"/>
      <point x="577" y="-690" type="curve" smooth="yes"/>
      <point x="726" y="-690"/>
      <point x="830" y="-608"/>
      <point x="868" y="-543" type="curve" smooth="yes"/>
      <point x="874" y="-533"/>
      <point x="877" y="-525"/>
      <point x="877" y="-519" type="curve" smooth="yes"/>
      <point x="877" y="-515"/>
      <point x="875" y="-511"/>
      <point x="870" y="-508" type="curve" smooth="yes"/>
      <point x="802" y="-470" type="line" smooth="yes"/>
      <point x="797" y="-467"/>
      <point x="792" y="-466"/>
      <point x="788" y="-466" type="curve" smooth="yes"/>
      <point x="783" y="-467"/>
      <point x="778" y="-469"/>
      <point x="774" y="-474" type="curve" smooth="yes"/>
      <point x="737" y="-515"/>
      <point x="674" y="-538"/>
      <point x="595" y="-538" type="curve" smooth="yes"/>
      <point x="541" y="-538"/>
      <point x="462" y="-509"/>
      <point x="462" y="-406" type="curve" smooth="yes"/>
      <point x="462" y="-312"/>
      <point x="530" y="-274"/>
      <point x="595" y="-274" type="curve" smooth="yes"/>
      <point x="748" y="-274"/>
      <point x="823" y="-430"/>
      <point x="1034" y="-430" type="curve" smooth="yes"/>
      <point x="1154" y="-430"/>
      <point x="1309" y="-360"/>
      <point x="1366" y="-153" type="curve" smooth="yes"/>
      <point x="1368" y="-146"/>
      <point x="1369" y="-140"/>
      <point x="1369" y="-136" type="curve" smooth="yes"/>
      <point x="1368" y="-130"/>
      <point x="1365" y="-127"/>
      <point x="1360" y="-125" type="curve" smooth="yes"/>
      <point x="1342" y="-118"/>
      <point x="1292" y="-102"/>
      <point x="1282" y="-99" type="curve" smooth="yes"/>
      <point x="1280" y="-98"/>
      <point x="1278" y="-98"/>
      <point x="1277" y="-98" type="curve" smooth="yes"/>
      <point x="1267" y="-98"/>
      <point x="1258" y="-106"/>
      <point x="1253" y="-121" type="curve" smooth="yes"/>
      <point x="1224" y="-207"/>
      <point x="1155" y="-256"/>
      <point x="1052" y="-256" type="curve" smooth="yes"/>
      <point x="907" y="-256"/>
      <point x="830" y="-98"/>
      <point x="585" y="-98" type="curve" smooth="yes"/>
      <point x="432" y="-98"/>
      <point x="241" y="-198"/>
    </contour>
    <contour>
      <point x="1581" y="403" type="curve" smooth="yes"/>
      <point x="1581" y="688"/>
      <point x="1434" y="870"/>
      <point x="1156" y="870" type="curve" smooth="yes"/>
      <point x="854" y="870"/>
      <point x="770" y="690"/>
      <point x="716" y="425" type="curve" smooth="yes"/>
      <point x="681" y="255"/>
      <point x="611" y="195"/>
      <point x="507" y="195" type="curve" smooth="yes"/>
      <point x="400" y="195"/>
      <point x="320" y="276"/>
      <point x="320" y="421" type="curve" smooth="yes"/>
      <point x="320" y="568"/>
      <point x="377" y="655"/>
      <point x="457" y="655" type="curve" smooth="yes"/>
      <point x="467" y="655"/>
      <point x="491" y="651"/>
      <point x="499" y="649" type="curve" smooth="yes"/>
      <point x="510" y="646"/>
      <point x="522" y="647"/>
      <point x="525" y="654" type="curve" smooth="yes"/>
      <point x="588" y="825" type="line" smooth="yes"/>
      <point x="592" y="835"/>
      <point x="589" y="845"/>
      <point x="580" y="849" type="curve" smooth="yes"/>
      <point x="551" y="862"/>
      <point x="496" y="870"/>
      <point x="467" y="870" type="curve" smooth="yes"/>
      <point x="192" y="870"/>
      <point x="85" y="686"/>
      <point x="85" y="421" type="curve" smooth="yes"/>
      <point x="85" y="138"/>
      <point x="236" y="-20"/>
      <point x="507" y="-20" type="curve" smooth="yes"/>
      <point x="796" y="-20"/>
      <point x="897" y="138"/>
      <point x="951" y="425" type="curve" smooth="yes"/>
      <point x="976" y="559"/>
      <point x="1039" y="655"/>
      <point x="1156" y="655" type="curve" smooth="yes"/>
      <point x="1279" y="655"/>
      <point x="1346" y="560"/>
      <point x="1346" y="403" type="curve" smooth="yes"/>
      <point x="1346" y="275"/>
      <point x="1270" y="195"/>
      <point x="1191" y="195" type="curve" smooth="yes"/>
      <point x="1180" y="195"/>
      <point x="1156" y="199"/>
      <point x="1148" y="201" type="curve" smooth="yes"/>
      <point x="1144" y="202"/>
      <point x="1141" y="202"/>
      <point x="1137" y="202" type="curve" smooth="yes"/>
      <point x="1130" y="202"/>
      <point x="1125" y="200"/>
      <point x="1123" y="195" type="curve" smooth="yes"/>
      <point x="1060" y="25" type="line" smooth="yes"/>
      <point x="1059" y="22"/>
      <point x="1058" y="18"/>
      <point x="1058" y="15" type="curve" smooth="yes"/>
      <point x="1058" y="9"/>
      <point x="1061" y="4"/>
      <point x="1067" y="1" type="curve" smooth="yes"/>
      <point x="1096" y="-12"/>
      <point x="1151" y="-20"/>
      <point x="1181" y="-20" type="curve" smooth="yes"/>
      <point x="1445" y="-20"/>
      <point x="1581" y="138"/>
    </contour>
  </outline>
</glyph>
<glyph name="uni199E" format="2">
  <advance width="1132"/>
  <unicode hex="199E"/>
  <outline>
    <contour>
      <point x="568" y="870" type="curve" smooth="yes"/>
      <point x="282" y="870"/>
      <point x="85" y="695"/>
      <point x="85" y="421" type="curve" smooth="yes"/>
      <point x="85" y="156"/>
      <point x="273" y="-20"/>
      <point x="568" y="-20" type="curve" smooth="yes"/>
      <point x="865" y="-20"/>
      <point x="1047" y="155"/>
      <point x="1047" y="421" type="curve" smooth="yes"/>
      <point x="1047" y="705"/>
      <point x="855" y="870"/>
    </contour>
    <contour>
      <point x="568" y="655" type="curve" smooth="yes"/>
      <point x="721" y="655"/>
      <point x="812" y="559"/>
      <point x="812" y="421" type="curve" smooth="yes"/>
      <point x="812" y="283"/>
      <point x="731" y="195"/>
      <point x="568" y="195" type="curve" smooth="yes"/>
      <point x="417" y="195"/>
      <point x="320" y="284"/>
      <point x="320" y="421" type="curve" smooth="yes"/>
      <point x="320" y="559"/>
      <point x="408" y="655"/>
    </contour>
  </outline>
</glyph>
<glyph name="uni19B1" format="2">
  <advance width="1080"/>
  <unicode hex="19B1"/>
  <outline>
    <contour>
      <point x="498" y="-20" type="curve" smooth="yes"/>
      <point x="813" y="-20"/>
      <point x="995" y="155"/>
      <point x="995" y="431" type="curve" smooth="yes"/>
      <point x="995" y="691"/>
      <point x="821" y="870"/>
      <point x="507" y="870" type="curve" smooth="yes"/>
      <point x="332" y="870"/>
      <point x="194" y="787"/>
      <point x="85" y="649" type="curve" smooth="yes"/>
      <point x="82" y="645"/>
      <point x="80" y="641"/>
      <point x="80" y="637" type="curve" smooth="yes"/>
      <point x="80" y="630"/>
      <point x="84" y="623"/>
      <point x="90" y="619" type="curve" smooth="yes"/>
      <point x="215" y="518" type="line" smooth="yes"/>
      <point x="219" y="516"/>
      <point x="223" y="515"/>
      <point x="226" y="515" type="curve" smooth="yes"/>
      <point x="233" y="515"/>
      <point x="239" y="518"/>
      <point x="243" y="524" type="curve" smooth="yes"/>
      <point x="294" y="598"/>
      <point x="386" y="655"/>
      <point x="507" y="655" type="curve" smooth="yes"/>
      <point x="646" y="655"/>
      <point x="760" y="575"/>
      <point x="760" y="431" type="curve" smooth="yes"/>
      <point x="760" y="293"/>
      <point x="660" y="195"/>
      <point x="498" y="195" type="curve" smooth="yes"/>
      <point x="394" y="195"/>
      <point x="302" y="240"/>
      <point x="253" y="308" type="curve" smooth="yes"/>
      <point x="248" y="314"/>
      <point x="242" y="317"/>
      <point x="236" y="317" type="curve" smooth="yes"/>
      <point x="232" y="317"/>
      <point x="229" y="316"/>
      <point x="225" y="314" type="curve" smooth="yes"/>
      <point x="90" y="203" type="line" smooth="yes"/>
      <point x="84" y="199"/>
      <point x="80" y="192"/>
      <point x="80" y="185" type="curve" smooth="yes"/>
      <point x="80" y="181"/>
      <point x="82" y="177"/>
      <point x="85" y="173" type="curve" smooth="yes"/>
      <point x="185" y="40"/>
      <point x="340" y="-20"/>
    </contour>
  </outline>
</glyph>
<glyph name="uni19B6" format="2">
  <advance width="2559"/>
  <unicode hex="19B6"/>
  <outline>
    <contour>
      <point x="776" y="182" type="curve" smooth="yes"/>
      <point x="776" y="100"/>
      <point x="816" y="-20"/>
      <point x="975" y="-20" type="curve" smooth="yes"/>
      <point x="1109" y="-20"/>
      <point x="1204" y="67"/>
      <point x="1254" y="217" type="curve" smooth="yes"/>
      <point x="1257" y="226"/>
      <point x="1258" y="236"/>
      <point x="1253" y="241" type="curve" smooth="yes"/>
      <point x="1186" y="308" type="line" smooth="yes"/>
      <point x="1178" y="316"/>
      <point x="1165" y="311"/>
      <point x="1163" y="303" type="curve" smooth="yes"/>
      <point x="1138" y="214"/>
      <point x="1087" y="189"/>
      <point x="1062" y="189" type="curve" smooth="yes"/>
      <point x="1039" y="189"/>
      <point x="1015" y="203"/>
      <point x="1015" y="234" type="curve" smooth="yes"/>
      <point x="1015" y="282"/>
      <point x="1054" y="345"/>
      <point x="1054" y="477" type="curve" smooth="yes"/>
      <point x="1054" y="684"/>
      <point x="924" y="870"/>
      <point x="579" y="870" type="curve" smooth="yes"/>
      <point x="244" y="870"/>
      <point x="85" y="637"/>
      <point x="85" y="369" type="curve" smooth="yes"/>
      <point x="85" y="150"/>
      <point x="230" y="-20"/>
      <point x="448" y="-20" type="curve" smooth="yes"/>
      <point x="488" y="-20"/>
      <point x="560" y="-1"/>
      <point x="600" y="31" type="curve" smooth="yes"/>
      <point x="608" y="37"/>
      <point x="612" y="46"/>
      <point x="607" y="55" type="curve" smooth="yes"/>
      <point x="534" y="196" type="line" smooth="yes"/>
      <point x="530" y="204"/>
      <point x="518" y="207"/>
      <point x="509" y="202" type="curve" smooth="yes"/>
      <point x="493" y="193"/>
      <point x="470" y="185"/>
      <point x="448" y="185" type="curve" smooth="yes"/>
      <point x="398" y="185"/>
      <point x="320" y="251"/>
      <point x="320" y="399" type="curve" smooth="yes"/>
      <point x="320" y="597"/>
      <point x="462" y="655"/>
      <point x="579" y="655" type="curve" smooth="yes"/>
      <point x="719" y="655"/>
      <point x="819" y="576"/>
      <point x="819" y="457" type="curve" smooth="yes"/>
      <point x="819" y="339"/>
      <point x="776" y="265"/>
    </contour>
    <contour>
      <point x="2064" y="182" type="curve" smooth="yes"/>
      <point x="2064" y="100"/>
      <point x="2104" y="-20"/>
      <point x="2263" y="-20" type="curve" smooth="yes"/>
      <point x="2397" y="-20"/>
      <point x="2492" y="67"/>
      <point x="2542" y="217" type="curve" smooth="yes"/>
      <point x="2545" y="226"/>
      <point x="2546" y="236"/>
      <point x="2541" y="241" type="curve" smooth="yes"/>
      <point x="2474" y="308" type="line" smooth="yes"/>
      <point x="2466" y="316"/>
      <point x="2453" y="311"/>
      <point x="2451" y="303" type="curve" smooth="yes"/>
      <point x="2426" y="214"/>
      <point x="2375" y="189"/>
      <point x="2350" y="189" type="curve" smooth="yes"/>
      <point x="2327" y="189"/>
      <point x="2303" y="203"/>
      <point x="2303" y="234" type="curve" smooth="yes"/>
      <point x="2303" y="282"/>
      <point x="2342" y="345"/>
      <point x="2342" y="477" type="curve" smooth="yes"/>
      <point x="2342" y="684"/>
      <point x="2212" y="870"/>
      <point x="1867" y="870" type="curve" smooth="yes"/>
      <point x="1532" y="870"/>
      <point x="1373" y="637"/>
      <point x="1373" y="369" type="curve" smooth="yes"/>
      <point x="1373" y="150"/>
      <point x="1518" y="-20"/>
      <point x="1736" y="-20" type="curve" smooth="yes"/>
      <point x="1776" y="-20"/>
      <point x="1848" y="-1"/>
      <point x="1888" y="31" type="curve" smooth="yes"/>
      <point x="1896" y="37"/>
      <point x="1900" y="46"/>
      <point x="1895" y="55" type="curve" smooth="yes"/>
      <point x="1822" y="196" type="line" smooth="yes"/>
      <point x="1818" y="204"/>
      <point x="1806" y="207"/>
      <point x="1797" y="202" type="curve" smooth="yes"/>
      <point x="1781" y="193"/>
      <point x="1758" y="185"/>
      <point x="1736" y="185" type="curve" smooth="yes"/>
      <point x="1686" y="185"/>
      <point x="1608" y="251"/>
      <point x="1608" y="399" type="curve" smooth="yes"/>
      <point x="1608" y="597"/>
      <point x="1750" y="655"/>
      <point x="1867" y="655" type="curve" smooth="yes"/>
      <point x="2007" y="655"/>
      <point x="2107" y="576"/>
      <point x="2107" y="457" type="curve" smooth="yes"/>
      <point x="2107" y="339"/>
      <point x="2064" y="265"/>
    </contour>
  </outline>
</glyph>
<glyph name="uni19BB" format="2">
  <advance width="1632"/>
  <unicode hex="19BB"/>
  <outline>
    <contour>
      <point x="498" y="-20" type="curve" smooth="yes"/>
      <point x="813" y="-20"/>
      <point x="995" y="155"/>
      <point x="995" y="431" type="curve" smooth="yes"/>
      <point x="995" y="691"/>
      <point x="821" y="870"/>
      <point x="507" y="870" type="curve" smooth="yes"/>
      <point x="332" y="870"/>
      <point x="194" y="787"/>
      <point x="85" y="649" type="curve" smooth="yes"/>
      <point x="77" y="640"/>
      <point x="80" y="626"/>
      <point x="90" y="619" type="curve" smooth="yes"/>
      <point x="215" y="518" type="line" smooth="yes"/>
      <point x="225" y="512"/>
      <point x="236" y="514"/>
      <point x="243" y="524" type="curve" smooth="yes"/>
      <point x="294" y="598"/>
      <point x="386" y="655"/>
      <point x="507" y="655" type="curve" smooth="yes"/>
      <point x="646" y="655"/>
      <point x="760" y="575"/>
      <point x="760" y="431" type="curve" smooth="yes"/>
      <point x="760" y="293"/>
      <point x="660" y="195"/>
      <point x="498" y="195" type="curve" smooth="yes"/>
      <point x="394" y="195"/>
      <point x="302" y="240"/>
      <point x="253" y="308" type="curve" smooth="yes"/>
      <point x="246" y="317"/>
      <point x="235" y="320"/>
      <point x="225" y="314" type="curve" smooth="yes"/>
      <point x="90" y="203" type="line" smooth="yes"/>
      <point x="80" y="196"/>
      <point x="77" y="182"/>
      <point x="85" y="173" type="curve" smooth="yes"/>
      <point x="185" y="40"/>
      <point x="340" y="-20"/>
    </contour>
    <contour>
      <point x="1122" y="-690" type="curve" smooth="yes"/>
      <point x="1413" y="-690"/>
      <point x="1522" y="-485"/>
      <point x="1522" y="-244" type="curve" smooth="yes"/>
      <point x="1522" y="832" type="line" smooth="yes"/>
      <point x="1522" y="842"/>
      <point x="1515" y="851"/>
      <point x="1506" y="851" type="curve" smooth="yes"/>
      <point x="1304" y="851" type="line" smooth="yes"/>
      <point x="1294" y="851"/>
      <point x="1287" y="842"/>
      <point x="1287" y="832" type="curve" smooth="yes"/>
      <point x="1287" y="-234" type="line" smooth="yes"/>
      <point x="1287" y="-414"/>
      <point x="1230" y="-502"/>
      <point x="1122" y="-502" type="curve" smooth="yes"/>
      <point x="1013" y="-502"/>
      <point x="975" y="-414"/>
      <point x="975" y="-234" type="curve" smooth="yes"/>
      <point x="975" y="471" type="line"/>
      <point x="740" y="161" type="line"/>
      <point x="740" y="-244" type="line" smooth="yes"/>
      <point x="740" y="-485"/>
      <point x="820" y="-690"/>
    </contour>
  </outline>
</glyph>
<glyph name="uni19BD" format="2">
  <advance width="1684"/>
  <unicode hex="19BD"/>
  <outline>
    <contour>
      <point x="1174" y="-690" type="curve" smooth="yes"/>
      <point x="1465" y="-690"/>
      <point x="1574" y="-485"/>
      <point x="1574" y="-244" type="curve" smooth="yes"/>
      <point x="1574" y="832" type="line" smooth="yes"/>
      <point x="1574" y="842"/>
      <point x="1567" y="851"/>
      <point x="1558" y="851" type="curve" smooth="yes"/>
      <point x="1356" y="851" type="line" smooth="yes"/>
      <point x="1346" y="851"/>
      <point x="1339" y="842"/>
      <point x="1339" y="832" type="curve" smooth="yes"/>
      <point x="1339" y="-234" type="line" smooth="yes"/>
      <point x="1339" y="-414"/>
      <point x="1282" y="-502"/>
      <point x="1174" y="-502" type="curve" smooth="yes"/>
      <point x="1065" y="-502"/>
      <point x="1027" y="-414"/>
      <point x="1027" y="-234" type="curve" smooth="yes"/>
      <point x="1027" y="471" type="line"/>
      <point x="792" y="161" type="line"/>
      <point x="792" y="-244" type="line" smooth="yes"/>
      <point x="792" y="-485"/>
      <point x="872" y="-690"/>
    </contour>
    <contour>
      <point x="568" y="-20" type="curve" smooth="yes"/>
      <point x="865" y="-20"/>
      <point x="1047" y="155"/>
      <point x="1047" y="421" type="curve" smooth="yes"/>
      <point x="1047" y="705"/>
      <point x="855" y="870"/>
      <point x="568" y="870" type="curve" smooth="yes"/>
      <point x="282" y="870"/>
      <point x="85" y="695"/>
      <point x="85" y="421" type="curve" smooth="yes"/>
      <point x="85" y="156"/>
      <point x="273" y="-20"/>
    </contour>
    <contour>
      <point x="568" y="195" type="curve" smooth="yes"/>
      <point x="417" y="195"/>
      <point x="320" y="284"/>
      <point x="320" y="421" type="curve" smooth="yes"/>
      <point x="320" y="559"/>
      <point x="408" y="655"/>
      <point x="568" y="655" type="curve" smooth="yes"/>
      <point x="721" y="655"/>
      <point x="812" y="559"/>
      <point x="812" y="421" type="curve" smooth="yes"/>
      <point x="812" y="283"/>
      <point x="731" y="195"/>
    </contour>
  </outline>
</glyph>
<glyph name="uni19C4" format="2">
  <advance width="1167"/>
  <unicode hex="19C4"/>
  <outline>
    <contour>
      <point x="584" y="-80" type="curve" smooth="yes"/>
      <point x="864" y="-80"/>
      <point x="1082" y="144"/>
      <point x="1082" y="429" type="curve" smooth="yes"/>
      <point x="1082" y="622"/>
      <point x="962" y="772"/>
      <point x="822" y="866" type="curve" smooth="yes"/>
      <point x="819" y="868"/>
      <point x="814" y="870"/>
      <point x="810" y="870" type="curve" smooth="yes"/>
      <point x="803" y="870"/>
      <point x="796" y="866"/>
      <point x="792" y="860" type="curve" smooth="yes"/>
      <point x="691" y="716" type="line" smooth="yes"/>
      <point x="684" y="706"/>
      <point x="688" y="694"/>
      <point x="697" y="688" type="curve" smooth="yes"/>
      <point x="786" y="629"/>
      <point x="848" y="569"/>
      <point x="848" y="429" type="curve" smooth="yes"/>
      <point x="848" y="245"/>
      <point x="772" y="117"/>
      <point x="584" y="117" type="curve" smooth="yes"/>
      <point x="395" y="117"/>
      <point x="320" y="245"/>
      <point x="320" y="429" type="curve" smooth="yes"/>
      <point x="320" y="569"/>
      <point x="384" y="641"/>
      <point x="475" y="696" type="curve" smooth="yes"/>
      <point x="485" y="702"/>
      <point x="488" y="715"/>
      <point x="481" y="724" type="curve" smooth="yes"/>
      <point x="375" y="860" type="line" smooth="yes"/>
      <point x="370" y="867"/>
      <point x="363" y="870"/>
      <point x="356" y="870" type="curve" smooth="yes"/>
      <point x="353" y="870"/>
      <point x="349" y="868"/>
      <point x="345" y="866" type="curve" smooth="yes"/>
      <point x="202" y="794"/>
      <point x="85" y="632"/>
      <point x="85" y="429" type="curve" smooth="yes"/>
      <point x="85" y="144"/>
      <point x="294" y="-80"/>
    </contour>
    <contour>
      <point x="766" y="-690" type="curve" smooth="yes"/>
      <point x="966" y="-690"/>
      <point x="1062" y="-539"/>
      <point x="1062" y="-379" type="curve" smooth="yes"/>
      <point x="1062" y="-130" type="line" smooth="yes"/>
      <point x="1062" y="250"/>
      <point x="882" y="470"/>
      <point x="584" y="470" type="curve" smooth="yes"/>
      <point x="439" y="470"/>
      <point x="283" y="396"/>
      <point x="196" y="283" type="curve"/>
      <point x="315" y="140" type="line"/>
      <point x="383" y="237"/>
      <point x="480" y="297"/>
      <point x="584" y="297" type="curve" smooth="yes"/>
      <point x="738" y="297"/>
      <point x="859" y="195"/>
      <point x="859" y="-130" type="curve" smooth="yes"/>
      <point x="859" y="-419" type="line" smooth="yes"/>
      <point x="859" y="-470"/>
      <point x="817" y="-512"/>
      <point x="766" y="-512" type="curve" smooth="yes"/>
      <point x="714" y="-512"/>
      <point x="677" y="-470"/>
      <point x="677" y="-419" type="curve" smooth="yes"/>
      <point x="677" y="-368"/>
      <point x="714" y="-331"/>
      <point x="766" y="-331" type="curve" smooth="yes"/>
      <point x="817" y="-331"/>
      <point x="859" y="-368"/>
      <point x="859" y="-419" type="curve"/>
      <point x="1062" y="-379" type="line"/>
      <point x="1044" y="-309"/>
      <point x="903" y="-153"/>
      <point x="756" y="-153" type="curve" smooth="yes"/>
      <point x="613" y="-153"/>
      <point x="499" y="-256"/>
      <point x="499" y="-419" type="curve" smooth="yes"/>
      <point x="499" y="-579"/>
      <point x="614" y="-690"/>
    </contour>
  </outline>
</glyph>
<glyph name="uni19C5" format="2">
  <advance width="1692"/>
  <unicode hex="19C5"/>
  <outline>
    <contour>
      <point x="1289" y="-690" type="curve" smooth="yes"/>
      <point x="1489" y="-690"/>
      <point x="1585" y="-558"/>
      <point x="1585" y="-399" type="curve" smooth="yes"/>
      <point x="1585" y="439" type="line"/>
      <point x="1382" y="219" type="line"/>
      <point x="1382" y="-419" type="line" smooth="yes"/>
      <point x="1382" y="-470"/>
      <point x="1340" y="-512"/>
      <point x="1289" y="-512" type="curve" smooth="yes"/>
      <point x="1237" y="-512"/>
      <point x="1200" y="-470"/>
      <point x="1200" y="-419" type="curve" smooth="yes"/>
      <point x="1200" y="-368"/>
      <point x="1237" y="-331"/>
      <point x="1289" y="-331" type="curve" smooth="yes"/>
      <point x="1340" y="-331"/>
      <point x="1382" y="-368"/>
      <point x="1382" y="-419" type="curve"/>
      <point x="1585" y="-399" type="line"/>
      <point x="1567" y="-329"/>
      <point x="1426" y="-153"/>
      <point x="1279" y="-153" type="curve" smooth="yes"/>
      <point x="1136" y="-153"/>
      <point x="1022" y="-256"/>
      <point x="1022" y="-419" type="curve" smooth="yes"/>
      <point x="1022" y="-579"/>
      <point x="1137" y="-690"/>
    </contour>
    <contour>
      <point x="1244" y="-20" type="curve" smooth="yes"/>
      <point x="1493" y="-20"/>
      <point x="1607" y="196"/>
      <point x="1607" y="430" type="curve" smooth="yes"/>
      <point x="1607" y="695"/>
      <point x="1420" y="870"/>
      <point x="1170" y="870" type="curve" smooth="yes"/>
      <point x="995" y="870"/>
      <point x="824" y="762"/>
      <point x="786" y="628" type="curve" smooth="yes"/>
      <point x="776" y="594"/>
      <point x="756" y="481"/>
      <point x="756" y="436" type="curve" smooth="yes"/>
      <point x="756" y="426"/>
      <point x="763" y="417"/>
      <point x="773" y="417" type="curve" smooth="yes"/>
      <point x="920" y="417" type="line" smooth="yes"/>
      <point x="928" y="417"/>
      <point x="936" y="426"/>
      <point x="936" y="436" type="curve" smooth="yes"/>
      <point x="936" y="495"/>
      <point x="992" y="655"/>
      <point x="1160" y="655" type="curve" smooth="yes"/>
      <point x="1275" y="655"/>
      <point x="1362" y="567"/>
      <point x="1362" y="420" type="curve" smooth="yes"/>
      <point x="1362" y="285"/>
      <point x="1303" y="196"/>
      <point x="1244" y="196" type="curve" smooth="yes"/>
      <point x="1233" y="196"/>
      <point x="1219" y="197"/>
      <point x="1211" y="199" type="curve" smooth="yes"/>
      <point x="1201" y="201"/>
      <point x="1189" y="201"/>
      <point x="1186" y="193" type="curve" smooth="yes"/>
      <point x="1133" y="21" type="line" smooth="yes"/>
      <point x="1130" y="11"/>
      <point x="1131" y="1"/>
      <point x="1140" y="-3" type="curve" smooth="yes"/>
      <point x="1169" y="-16"/>
      <point x="1214" y="-20"/>
    </contour>
    <contour>
      <point x="448" y="-20" type="curve" smooth="yes"/>
      <point x="478" y="-20"/>
      <point x="523" y="-16"/>
      <point x="552" y="-3" type="curve" smooth="yes"/>
      <point x="561" y="1"/>
      <point x="562" y="11"/>
      <point x="559" y="21" type="curve" smooth="yes"/>
      <point x="506" y="193" type="line" smooth="yes"/>
      <point x="503" y="201"/>
      <point x="491" y="201"/>
      <point x="481" y="199" type="curve" smooth="yes"/>
      <point x="472" y="197"/>
      <point x="458" y="196"/>
      <point x="448" y="196" type="curve" smooth="yes"/>
      <point x="388" y="196"/>
      <point x="330" y="289"/>
      <point x="330" y="420" type="curve" smooth="yes"/>
      <point x="330" y="567"/>
      <point x="416" y="655"/>
      <point x="532" y="655" type="curve" smooth="yes"/>
      <point x="706" y="655"/>
      <point x="756" y="495"/>
      <point x="756" y="436" type="curve" smooth="yes"/>
      <point x="756" y="426"/>
      <point x="764" y="417"/>
      <point x="772" y="417" type="curve" smooth="yes"/>
      <point x="919" y="417" type="line" smooth="yes"/>
      <point x="929" y="417"/>
      <point x="936" y="426"/>
      <point x="936" y="436" type="curve" smooth="yes"/>
      <point x="936" y="481"/>
      <point x="916" y="594"/>
      <point x="906" y="628" type="curve" smooth="yes"/>
      <point x="868" y="762"/>
      <point x="697" y="870"/>
      <point x="522" y="870" type="curve" smooth="yes"/>
      <point x="272" y="870"/>
      <point x="85" y="695"/>
      <point x="85" y="430" type="curve" smooth="yes"/>
      <point x="85" y="196"/>
      <point x="199" y="-20"/>
    </contour>
  </outline>
</glyph>
<glyph name="uni19C8" format="2">
  <advance width="1081"/>
  <unicode hex="19C8"/>
  <outline>
    <contour>
      <point x="561" y="-20" type="curve" smooth="yes"/>
      <point x="797" y="-20"/>
      <point x="991" y="87"/>
      <point x="991" y="286" type="curve" smooth="yes"/>
      <point x="991" y="449"/>
      <point x="822" y="525"/>
      <point x="597" y="525" type="curve" smooth="yes"/>
      <point x="452" y="525"/>
      <point x="320" y="469"/>
      <point x="215" y="404" type="curve"/>
      <point x="264" y="268" type="line"/>
      <point x="351" y="332"/>
      <point x="446" y="367"/>
      <point x="587" y="367" type="curve" smooth="yes"/>
      <point x="715" y="367"/>
      <point x="776" y="324"/>
      <point x="776" y="268" type="curve" smooth="yes"/>
      <point x="776" y="214"/>
      <point x="705" y="170"/>
      <point x="561" y="170" type="curve" smooth="yes"/>
      <point x="407" y="170"/>
      <point x="311" y="274"/>
      <point x="311" y="421" type="curve" smooth="yes"/>
      <point x="311" y="555"/>
      <point x="393" y="680"/>
      <point x="581" y="680" type="curve" smooth="yes"/>
      <point x="713" y="680"/>
      <point x="797" y="654"/>
      <point x="870" y="610" type="curve" smooth="yes"/>
      <point x="877" y="606"/>
      <point x="884" y="602"/>
      <point x="890" y="601" type="curve" smooth="yes"/>
      <point x="893" y="601"/>
      <point x="896" y="602"/>
      <point x="898" y="605" type="curve" smooth="yes"/>
      <point x="974" y="695" type="line" smooth="yes"/>
      <point x="978" y="700"/>
      <point x="983" y="707"/>
      <point x="983" y="714" type="curve" smooth="yes"/>
      <point x="983" y="718"/>
      <point x="982" y="722"/>
      <point x="979" y="725" type="curve" smooth="yes"/>
      <point x="890" y="825"/>
      <point x="747" y="870"/>
      <point x="581" y="870" type="curve" smooth="yes"/>
      <point x="267" y="870"/>
      <point x="85" y="671"/>
      <point x="85" y="421" type="curve" smooth="yes"/>
      <point x="85" y="146"/>
      <point x="274" y="-20"/>
    </contour>
  </outline>
</glyph>
<glyph name="uni19C9" format="2">
  <advance width="1081"/>
  <unicode hex="19C9"/>
  <outline>
    <contour>
      <point x="581" y="-20" type="curve" smooth="yes"/>
      <point x="747" y="-20"/>
      <point x="890" y="25"/>
      <point x="979" y="125" type="curve" smooth="yes"/>
      <point x="982" y="128"/>
      <point x="983" y="132"/>
      <point x="983" y="135" type="curve" smooth="yes"/>
      <point x="983" y="142"/>
      <point x="979" y="150"/>
      <point x="974" y="155" type="curve" smooth="yes"/>
      <point x="898" y="245" type="line" smooth="yes"/>
      <point x="895" y="248"/>
      <point x="892" y="249"/>
      <point x="888" y="249" type="curve" smooth="yes"/>
      <point x="882" y="248"/>
      <point x="876" y="244"/>
      <point x="870" y="240" type="curve" smooth="yes"/>
      <point x="799" y="193"/>
      <point x="713" y="170"/>
      <point x="581" y="170" type="curve" smooth="yes"/>
      <point x="393" y="170"/>
      <point x="311" y="295"/>
      <point x="311" y="429" type="curve" smooth="yes"/>
      <point x="311" y="576"/>
      <point x="417" y="680"/>
      <point x="571" y="680" type="curve" smooth="yes"/>
      <point x="715" y="680"/>
      <point x="776" y="646"/>
      <point x="776" y="592" type="curve" smooth="yes"/>
      <point x="776" y="536"/>
      <point x="715" y="493"/>
      <point x="587" y="493" type="curve" smooth="yes"/>
      <point x="446" y="493"/>
      <point x="351" y="518"/>
      <point x="264" y="582" type="curve"/>
      <point x="215" y="446" type="line"/>
      <point x="320" y="381"/>
      <point x="442" y="335"/>
      <point x="587" y="335" type="curve" smooth="yes"/>
      <point x="822" y="335"/>
      <point x="991" y="411"/>
      <point x="991" y="574" type="curve" smooth="yes"/>
      <point x="991" y="773"/>
      <point x="807" y="870"/>
      <point x="571" y="870" type="curve" smooth="yes"/>
      <point x="284" y="870"/>
      <point x="85" y="704"/>
      <point x="85" y="429" type="curve" smooth="yes"/>
      <point x="85" y="179"/>
      <point x="267" y="-20"/>
    </contour>
  </outline>
</glyph>
<glyph name="uni19D4" format="2">
  <advance width="1083"/>
  <unicode hex="19D4"/>
  <outline>
    <contour>
      <point x="85" y="421" type="curve" smooth="yes"/>
      <point x="85" y="137"/>
      <point x="284" y="-20"/>
      <point x="563" y="-20" type="curve" smooth="yes"/>
      <point x="595" y="-20"/>
      <point x="639" y="-16"/>
      <point x="665" y="-3" type="curve" smooth="yes"/>
      <point x="673" y="1"/>
      <point x="676" y="-14"/>
      <point x="670" y="-21" type="curve" smooth="yes"/>
      <point x="537" y="-176"/>
      <point x="343" y="-338"/>
      <point x="67" y="-496" type="curve" smooth="yes"/>
      <point x="63" y="-499"/>
      <point x="58" y="-505"/>
      <point x="58" y="-511" type="curve" smooth="yes"/>
      <point x="58" y="-515"/>
      <point x="59" y="-519"/>
      <point x="62" y="-522" type="curve" smooth="yes"/>
      <point x="205" y="-685" type="line" smooth="yes"/>
      <point x="208" y="-688"/>
      <point x="211" y="-690"/>
      <point x="215" y="-690" type="curve" smooth="yes"/>
      <point x="220" y="-690"/>
      <point x="225" y="-687"/>
      <point x="229" y="-684" type="curve" smooth="yes"/>
      <point x="432" y="-515"/>
      <point x="721" y="-252"/>
      <point x="991" y="63" type="curve" smooth="yes"/>
      <point x="995" y="68"/>
      <point x="999" y="74"/>
      <point x="999" y="80" type="curve" smooth="yes"/>
      <point x="999" y="83"/>
      <point x="998" y="87"/>
      <point x="996" y="90" type="curve" smooth="yes"/>
      <point x="886" y="252" type="line" smooth="yes"/>
      <point x="883" y="256"/>
      <point x="878" y="259"/>
      <point x="873" y="259" type="curve" smooth="yes"/>
      <point x="868" y="259"/>
      <point x="864" y="257"/>
      <point x="860" y="255" type="curve" smooth="yes"/>
      <point x="775" y="204"/>
      <point x="678" y="195"/>
      <point x="573" y="195" type="curve" smooth="yes"/>
      <point x="447" y="195"/>
      <point x="321" y="274"/>
      <point x="321" y="421" type="curve" smooth="yes"/>
      <point x="321" y="555"/>
      <point x="414" y="655"/>
      <point x="582" y="655" type="curve" smooth="yes"/>
      <point x="654" y="655"/>
      <point x="765" y="632"/>
      <point x="841" y="524" type="curve" smooth="yes"/>
      <point x="845" y="518"/>
      <point x="851" y="514"/>
      <point x="857" y="514" type="curve" smooth="yes"/>
      <point x="861" y="514"/>
      <point x="865" y="515"/>
      <point x="869" y="518" type="curve" smooth="yes"/>
      <point x="994" y="619" type="line" smooth="yes"/>
      <point x="1000" y="624"/>
      <point x="1003" y="631"/>
      <point x="1003" y="638" type="curve" smooth="yes"/>
      <point x="1003" y="641"/>
      <point x="1001" y="645"/>
      <point x="999" y="649" type="curve" smooth="yes"/>
      <point x="897" y="795"/>
      <point x="747" y="870"/>
      <point x="572" y="870" type="curve" smooth="yes"/>
      <point x="257" y="870"/>
      <point x="85" y="690"/>
    </contour>
  </outline>
</glyph>
<glyph name="uni19D9" format="2">
  <advance width="1070"/>
  <unicode hex="19D9"/>
  <outline>
    <contour>
      <point x="631" y="-690" type="curve" smooth="yes"/>
      <point x="928" y="-690"/>
      <point x="1035" y="-453"/>
      <point x="1067" y="-291" type="curve" smooth="yes"/>
      <point x="1069" y="-281"/>
      <point x="1064" y="-267"/>
      <point x="1054" y="-266" type="curve" smooth="yes"/>
      <point x="946" y="-256" type="line" smooth="yes"/>
      <point x="939" y="-255"/>
      <point x="926" y="-260"/>
      <point x="923" y="-270" type="curve" smooth="yes"/>
      <point x="881" y="-410"/>
      <point x="809" y="-502"/>
      <point x="631" y="-502" type="curve" smooth="yes"/>
      <point x="463" y="-502"/>
      <point x="315" y="-337"/>
      <point x="315" y="122" type="curve" smooth="yes"/>
      <point x="315" y="504"/>
      <point x="432" y="655"/>
      <point x="570" y="655" type="curve" smooth="yes"/>
      <point x="683" y="655"/>
      <point x="750" y="586"/>
      <point x="750" y="466" type="curve" smooth="yes"/>
      <point x="750" y="353"/>
      <point x="701" y="284"/>
      <point x="611" y="284" type="curve" smooth="yes"/>
      <point x="581" y="284"/>
      <point x="561" y="291"/>
      <point x="543" y="305" type="curve" smooth="yes"/>
      <point x="534" y="312"/>
      <point x="520" y="307"/>
      <point x="518" y="300" type="curve" smooth="yes"/>
      <point x="465" y="126" type="line" smooth="yes"/>
      <point x="462" y="117"/>
      <point x="464" y="107"/>
      <point x="472" y="102" type="curve" smooth="yes"/>
      <point x="519" y="73"/>
      <point x="578" y="60"/>
      <point x="631" y="60" type="curve" smooth="yes"/>
      <point x="860" y="60"/>
      <point x="985" y="285"/>
      <point x="985" y="466" type="curve" smooth="yes"/>
      <point x="985" y="676"/>
      <point x="877" y="870"/>
      <point x="570" y="870" type="curve" smooth="yes"/>
      <point x="309" y="870"/>
      <point x="80" y="629"/>
      <point x="80" y="122" type="curve" smooth="yes"/>
      <point x="80" y="-395"/>
      <point x="280" y="-690"/>
    </contour>
  </outline>
</glyph>
<glyph name="uni19DE" format="2">
  <advance width="1796"/>
  <unicode hex="19DE"/>
  <anchor x="770" y="-100" name="bottom"/>
  <outline>
    <contour>
      <point x="1061" y="-20" type="curve" smooth="yes"/>
      <point x="1351" y="-20"/>
      <point x="1448" y="230"/>
      <point x="1448" y="545" type="curve" smooth="yes"/>
      <point x="1448" y="619"/>
      <point x="1443" y="697"/>
      <point x="1433" y="776" type="curve" smooth="yes"/>
      <point x="1417" y="906"/>
      <point x="1409" y="1014"/>
      <point x="1409" y="1100" type="curve" smooth="yes"/>
      <point x="1409" y="1269"/>
      <point x="1422" y="1353"/>
      <point x="1498" y="1353" type="curve" smooth="yes"/>
      <point x="1578" y="1353"/>
      <point x="1608" y="1297"/>
      <point x="1608" y="1148" type="curve" smooth="yes"/>
      <point x="1608" y="1139"/>
      <point x="1615" y="1130"/>
      <point x="1625" y="1130" type="curve" smooth="yes"/>
      <point x="1726" y="1129" type="line" smooth="yes"/>
      <point x="1734" y="1129"/>
      <point x="1739" y="1139"/>
      <point x="1741" y="1148" type="curve" smooth="yes"/>
      <point x="1747" y="1185"/>
      <point x="1751" y="1220"/>
      <point x="1751" y="1254" type="curve" smooth="yes"/>
      <point x="1751" y="1418"/>
      <point x="1674" y="1540"/>
      <point x="1498" y="1540" type="curve" smooth="yes"/>
      <point x="1262" y="1540"/>
      <point x="1184" y="1329"/>
      <point x="1184" y="1007" type="curve" smooth="yes"/>
      <point x="1184" y="935"/>
      <point x="1187" y="858"/>
      <point x="1198" y="776" type="curve" smooth="yes"/>
      <point x="1210" y="683"/>
      <point x="1215" y="595"/>
      <point x="1215" y="517" type="curve" smooth="yes"/>
      <point x="1215" y="326"/>
      <point x="1176" y="195"/>
      <point x="1061" y="195" type="curve" smooth="yes"/>
      <point x="975" y="195"/>
      <point x="936" y="272"/>
      <point x="907" y="425" type="curve" smooth="yes"/>
      <point x="853" y="711"/>
      <point x="739" y="870"/>
      <point x="486" y="870" type="curve" smooth="yes"/>
      <point x="193" y="870"/>
      <point x="80" y="648"/>
      <point x="80" y="393" type="curve" smooth="yes"/>
      <point x="80" y="138"/>
      <point x="203" y="-20"/>
      <point x="442" y="-20" type="curve" smooth="yes"/>
      <point x="472" y="-20"/>
      <point x="536" y="-15"/>
      <point x="565" y="-3" type="curve" smooth="yes"/>
      <point x="572" y="0"/>
      <point x="575" y="5"/>
      <point x="575" y="12" type="curve" smooth="yes"/>
      <point x="575" y="15"/>
      <point x="574" y="18"/>
      <point x="573" y="21" type="curve" smooth="yes"/>
      <point x="510" y="192" type="line" smooth="yes"/>
      <point x="508" y="198"/>
      <point x="503" y="199"/>
      <point x="496" y="199" type="curve" smooth="yes"/>
      <point x="493" y="199"/>
      <point x="489" y="199"/>
      <point x="485" y="198" type="curve" smooth="yes"/>
      <point x="476" y="196"/>
      <point x="452" y="195"/>
      <point x="442" y="195" type="curve" smooth="yes"/>
      <point x="372" y="195"/>
      <point x="315" y="265"/>
      <point x="315" y="393" type="curve" smooth="yes"/>
      <point x="315" y="560"/>
      <point x="383" y="655"/>
      <point x="476" y="655" type="curve" smooth="yes"/>
      <point x="564" y="655"/>
      <point x="640" y="615"/>
      <point x="674" y="425" type="curve" smooth="yes"/>
      <point x="720" y="168"/>
      <point x="811" y="-20"/>
    </contour>
  </outline>
</glyph>
<glyph name="figuredash" format="2">
  <advance width="1003"/>
  <unicode hex="2012"/>
  <outline>
    <contour>
      <point x="936" y="443" type="line"/>
      <point x="936" y="610" type="line"/>
      <point x="66" y="610" type="line"/>
      <point x="66" y="443" type="line"/>
    </contour>
  </outline>
</glyph>
<glyph name="emdash" format="2">
  <advance width="1330"/>
  <unicode hex="2014"/>
  <outline>
    <contour>
      <point x="1285" y="450" type="curve" smooth="yes"/>
      <point x="1285" y="421"/>
      <point x="1277" y="360"/>
      <point x="1260" y="360" type="curve" smooth="yes"/>
      <point x="70" y="360" type="line" smooth="yes"/>
      <point x="54" y="360"/>
      <point x="45" y="421"/>
      <point x="45" y="450" type="curve" smooth="yes"/>
      <point x="45" y="477"/>
      <point x="55" y="540"/>
      <point x="72" y="540" type="curve" smooth="yes"/>
      <point x="1258" y="540" type="line" smooth="yes"/>
      <point x="1276" y="540"/>
      <point x="1285" y="477"/>
    </contour>
  </outline>
</glyph>
<glyph name="quoteleft" format="2">
  <advance width="650"/>
  <unicode hex="2018"/>
  <outline>
    <contour>
      <point x="330" y="684" type="curve" smooth="yes"/>
      <point x="427" y="684"/>
      <point x="500" y="760"/>
      <point x="500" y="845" type="curve" smooth="yes"/>
      <point x="500" y="929"/>
      <point x="443" y="993"/>
      <point x="373" y="993" type="curve" smooth="yes"/>
      <point x="335" y="993"/>
      <point x="318" y="960"/>
      <point x="307" y="960" type="curve" smooth="yes"/>
      <point x="293" y="960"/>
      <point x="280" y="977"/>
      <point x="280" y="1014" type="curve" smooth="yes"/>
      <point x="280" y="1120"/>
      <point x="343" y="1220"/>
      <point x="443" y="1345" type="curve" smooth="yes"/>
      <point x="446" y="1349"/>
      <point x="447" y="1351"/>
      <point x="447" y="1353" type="curve" smooth="yes"/>
      <point x="447" y="1354"/>
      <point x="447" y="1354"/>
      <point x="446" y="1355" type="curve" smooth="yes"/>
      <point x="444" y="1358"/>
      <point x="408" y="1394"/>
      <point x="404" y="1398" type="curve" smooth="yes"/>
      <point x="403" y="1399"/>
      <point x="403" y="1399"/>
      <point x="402" y="1399" type="curve" smooth="yes"/>
      <point x="400" y="1399"/>
      <point x="398" y="1398"/>
      <point x="395" y="1395" type="curve" smooth="yes"/>
      <point x="245" y="1245"/>
      <point x="150" y="1096"/>
      <point x="150" y="922" type="curve" smooth="yes"/>
      <point x="150" y="756"/>
      <point x="239" y="684"/>
    </contour>
  </outline>
</glyph>
<glyph name="quoteright" format="2">
  <advance width="650"/>
  <unicode hex="2019"/>
  <outline>
    <contour>
      <point x="248" y="684" type="curve" smooth="yes"/>
      <point x="250" y="684"/>
      <point x="252" y="685"/>
      <point x="255" y="688" type="curve" smooth="yes"/>
      <point x="405" y="838"/>
      <point x="500" y="987"/>
      <point x="500" y="1161" type="curve" smooth="yes"/>
      <point x="500" y="1327"/>
      <point x="411" y="1399"/>
      <point x="320" y="1399" type="curve" smooth="yes"/>
      <point x="223" y="1399"/>
      <point x="150" y="1323"/>
      <point x="150" y="1238" type="curve" smooth="yes"/>
      <point x="150" y="1154"/>
      <point x="207" y="1090"/>
      <point x="277" y="1090" type="curve" smooth="yes"/>
      <point x="315" y="1090"/>
      <point x="332" y="1123"/>
      <point x="343" y="1123" type="curve" smooth="yes"/>
      <point x="357" y="1123"/>
      <point x="370" y="1106"/>
      <point x="370" y="1069" type="curve" smooth="yes"/>
      <point x="370" y="963"/>
      <point x="307" y="863"/>
      <point x="207" y="738" type="curve" smooth="yes"/>
      <point x="204" y="734"/>
      <point x="203" y="732"/>
      <point x="203" y="730" type="curve" smooth="yes"/>
      <point x="203" y="729"/>
      <point x="203" y="729"/>
      <point x="204" y="728" type="curve" smooth="yes"/>
      <point x="206" y="725"/>
      <point x="242" y="689"/>
      <point x="246" y="685" type="curve" smooth="yes"/>
      <point x="247" y="684"/>
      <point x="247" y="684"/>
    </contour>
  </outline>
</glyph>
<glyph name="quotesinglbase" format="2">
  <advance width="660"/>
  <unicode hex="201A"/>
  <outline>
    <contour>
      <point x="221" y="41" type="line"/>
      <point x="355" y="41" type="line"/>
      <point x="355" y="-28"/>
      <point x="309" y="-127"/>
      <point x="221" y="-221" type="curve"/>
      <point x="342" y="-280" type="line"/>
      <point x="446" y="-190"/>
      <point x="535" y="-40"/>
      <point x="535" y="108" type="curve" smooth="yes"/>
      <point x="535" y="212"/>
      <point x="475" y="284"/>
      <point x="380" y="284" type="curve" smooth="yes"/>
      <point x="285" y="284"/>
      <point x="221" y="213"/>
      <point x="221" y="150" type="curve" smooth="yes"/>
    </contour>
  </outline>
</glyph>
<glyph name="quotedblbase" format="2">
  <advance width="1116"/>
  <unicode hex="201E"/>
  <outline>
    <contour>
      <point x="171" y="41" type="line"/>
      <point x="305" y="41" type="line"/>
      <point x="305" y="-28"/>
      <point x="259" y="-127"/>
      <point x="171" y="-221" type="curve"/>
      <point x="292" y="-280" type="line"/>
      <point x="396" y="-190"/>
      <point x="484" y="-40"/>
      <point x="484" y="108" type="curve" smooth="yes"/>
      <point x="484" y="212"/>
      <point x="425" y="284"/>
      <point x="330" y="284" type="curve" smooth="yes"/>
      <point x="235" y="284"/>
      <point x="171" y="213"/>
      <point x="171" y="150" type="curve" smooth="yes"/>
    </contour>
    <contour>
      <point x="631" y="41" type="line"/>
      <point x="764" y="41" type="line"/>
      <point x="764" y="-28"/>
      <point x="718" y="-127"/>
      <point x="631" y="-221" type="curve"/>
      <point x="752" y="-280" type="line"/>
      <point x="856" y="-190"/>
      <point x="944" y="-40"/>
      <point x="944" y="108" type="curve" smooth="yes"/>
      <point x="944" y="212"/>
      <point x="885" y="284"/>
      <point x="790" y="284" type="curve" smooth="yes"/>
      <point x="695" y="284"/>
      <point x="631" y="213"/>
      <point x="631" y="150" type="curve" smooth="yes"/>
    </contour>
  </outline>
</glyph>
<glyph name="hyphenationpoint" format="2">
  <advance width="627"/>
  <unicode hex="2027"/>
  <outline>
    <contour>
      <point x="167" y="593" type="curve" smooth="yes"/>
      <point x="167" y="506"/>
      <point x="229" y="447"/>
      <point x="313" y="447" type="curve" smooth="yes"/>
      <point x="398" y="447"/>
      <point x="459" y="506"/>
      <point x="459" y="593" type="curve" smooth="yes"/>
      <point x="459" y="678"/>
      <point x="398" y="739"/>
      <point x="313" y="739" type="curve" smooth="yes"/>
      <point x="229" y="739"/>
      <point x="167" y="678"/>
    </contour>
  </outline>
</glyph>
<glyph name="fraction" format="2">
  <advance width="1070"/>
  <unicode hex="2044"/>
  <outline>
    <contour>
      <point x="869" y="1338" type="line"/>
      <point x="8" y="-205" type="line"/>
      <point x="201" y="-205" type="line"/>
      <point x="1062" y="1338" type="line"/>
    </contour>
  </outline>
</glyph>
<glyph name="increment" format="2">
  <advance width="1200"/>
  <unicode hex="2206"/>
  <outline>
    <contour>
      <point x="1133" y="121" type="line"/>
      <point x="706" y="1221" type="line"/>
      <point x="477" y="1221" type="line"/>
      <point x="50" y="121" type="line"/>
      <point x="50" y="0" type="line"/>
      <point x="196" y="0" type="line"/>
      <point x="589" y="1041" type="line"/>
      <point x="986" y="0" type="line"/>
      <point x="1133" y="0" type="line"/>
    </contour>
    <contour>
      <point x="163" y="0" type="line"/>
      <point x="1020" y="0" type="line"/>
      <point x="1020" y="176" type="line"/>
      <point x="163" y="176" type="line"/>
    </contour>
  </outline>
</glyph>
<glyph name="minus" format="2">
  <advance width="1003"/>
  <unicode hex="2212"/>
  <outline>
    <contour>
      <point x="121" y="526" type="line"/>
      <point x="881" y="526" type="line"/>
      <point x="881" y="693" type="line"/>
      <point x="121" y="693" type="line"/>
    </contour>
  </outline>
</glyph>
<glyph name="radical" format="2">
  <advance width="1003"/>
  <unicode hex="221A"/>
  <outline>
    <contour>
      <point x="1108" y="1254" type="line"/>
      <point x="1108" y="1371" type="line"/>
      <point x="899" y="1371" type="line"/>
      <point x="543" y="242" type="line"/>
      <point x="218" y="835" type="line"/>
      <point x="0" y="711" type="line"/>
      <point x="54" y="604" type="line"/>
      <point x="142" y="655" type="line"/>
      <point x="502" y="0" type="line"/>
      <point x="606" y="0" type="line"/>
      <point x="1003" y="1254" type="line"/>
    </contour>
  </outline>
</glyph>
<glyph name="blank" format="2">
  <advance width="380"/>
  <unicode hex="2423"/>
  <outline>
    <contour>
      <point x="380" y="-213" type="line"/>
      <point x="380" y="0" type="line"/>
      <point x="313" y="0" type="line"/>
      <point x="313" y="-146" type="line"/>
      <point x="66" y="-146" type="line"/>
      <point x="66" y="0" type="line"/>
      <point x="0" y="0" type="line"/>
      <point x="0" y="-213" type="line"/>
    </contour>
  </outline>
</glyph>
<glyph name="lozenge" format="2">
  <advance width="874"/>
  <unicode hex="25CA"/>
  <outline>
    <contour>
      <point x="857" y="690" type="line"/>
      <point x="506" y="1338" type="line"/>
      <point x="368" y="1338" type="line"/>
      <point x="21" y="690" type="line"/>
      <point x="368" y="0" type="line"/>
      <point x="506" y="0" type="line"/>
    </contour>
    <contour>
      <point x="681" y="690" type="line"/>
      <point x="439" y="155" type="line"/>
      <point x="192" y="690" type="line"/>
      <point x="439" y="1183" type="line"/>
    </contour>
  </outline>
</glyph>
<glyph name="dblanglebracketright" format="2">
  <advance width="1130"/>
  <unicode hex="300B"/>
  <outline>
    <contour>
      <point x="204" y="-295" type="line"/>
      <point x="552" y="426" type="line"/>
      <point x="204" y="1146" type="line"/>
      <point x="65" y="1089" type="line"/>
      <point x="382" y="426" type="line"/>
      <point x="65" y="-238" type="line"/>
    </contour>
    <contour>
      <point x="573" y="-295" type="line"/>
      <point x="920" y="426" type="line"/>
      <point x="573" y="1146" type="line"/>
      <point x="433" y="1089" type="line"/>
      <point x="751" y="426" type="line"/>
      <point x="433" y="-238" type="line"/>
    </contour>
  </outline>
</glyph>
<glyph name="exclam.full" format="2">
  <advance width="1130"/>
  <unicode hex="FF01"/>
  <outline>
    <contour>
      <point x="562" y="306" type="curve" smooth="yes"/>
      <point x="583" y="306"/>
      <point x="604" y="311"/>
      <point x="606" y="322" type="curve" smooth="yes"/>
      <point x="695" y="890" type="line" smooth="yes"/>
      <point x="699" y="914"/>
      <point x="699" y="1108"/>
      <point x="699" y="1150" type="curve" smooth="yes"/>
      <point x="699" y="1185"/>
      <point x="648" y="1199"/>
      <point x="566" y="1199" type="curve" smooth="yes"/>
      <point x="483" y="1199"/>
      <point x="431" y="1188"/>
      <point x="431" y="1150" type="curve" smooth="yes"/>
      <point x="431" y="1108"/>
      <point x="431" y="914"/>
      <point x="435" y="890" type="curve" smooth="yes"/>
      <point x="520" y="322" type="line" smooth="yes"/>
      <point x="522" y="311"/>
      <point x="542" y="306"/>
    </contour>
    <contour>
      <point x="565" y="-208" type="curve" smooth="yes"/>
      <point x="655" y="-208"/>
      <point x="729" y="-133"/>
      <point x="729" y="-29" type="curve" smooth="yes"/>
      <point x="729" y="75"/>
      <point x="655" y="150"/>
      <point x="565" y="150" type="curve" smooth="yes"/>
      <point x="477" y="150"/>
      <point x="401" y="75"/>
      <point x="401" y="-29" type="curve" smooth="yes"/>
      <point x="401" y="-133"/>
      <point x="477" y="-208"/>
    </contour>
  </outline>
</glyph>
<glyph name="parenright.full" format="2">
  <advance width="1130"/>
  <unicode hex="FF09"/>
  <outline>
    <contour>
      <point x="194" y="-332" type="line"/>
      <point x="420" y="-186"/>
      <point x="602" y="65"/>
      <point x="602" y="425" type="curve" smooth="yes"/>
      <point x="602" y="786"/>
      <point x="420" y="1037"/>
      <point x="194" y="1182" type="curve"/>
      <point x="140" y="1125" type="line"/>
      <point x="270" y="997"/>
      <point x="392" y="755"/>
      <point x="392" y="425" type="curve" smooth="yes"/>
      <point x="392" y="95"/>
      <point x="270" y="-146"/>
      <point x="140" y="-275" type="curve"/>
    </contour>
  </outline>
</glyph>
<glyph name="colon.full" format="2">
  <advance width="1130"/>
  <unicode hex="FF1A"/>
  <outline>
    <contour>
      <point x="565" y="512" type="curve" smooth="yes"/>
      <point x="655" y="512"/>
      <point x="729" y="587"/>
      <point x="729" y="691" type="curve" smooth="yes"/>
      <point x="729" y="795"/>
      <point x="655" y="870"/>
      <point x="565" y="870" type="curve" smooth="yes"/>
      <point x="477" y="870"/>
      <point x="401" y="795"/>
      <point x="401" y="691" type="curve" smooth="yes"/>
      <point x="401" y="587"/>
      <point x="477" y="512"/>
    </contour>
    <contour>
      <point x="565" y="-208" type="curve" smooth="yes"/>
      <point x="655" y="-208"/>
      <point x="729" y="-133"/>
      <point x="729" y="-29" type="curve" smooth="yes"/>
      <point x="729" y="75"/>
      <point x="655" y="150"/>
      <point x="565" y="150" type="curve" smooth="yes"/>
      <point x="477" y="150"/>
      <point x="401" y="75"/>
      <point x="401" y="-29" type="curve" smooth="yes"/>
      <point x="401" y="-133"/>
      <point x="477" y="-208"/>
    </contour>
  </outline>
</glyph>
<glyph name="replacementCharacter" format="2">
  <advance width="1647"/>
  <unicode hex="FFFD"/>
  <outline>
    <contour>
      <point x="1143" y="896" type="curve"/>
      <point x="1143" y="769"/>
      <point x="1064" y="677"/>
      <point x="1013" y="619" type="curve" smooth="yes"/>
      <point x="894" y="485"/>
      <point x="838" y="423"/>
      <point x="831" y="267" type="curve"/>
      <point x="795" y="267" type="line"/>
      <point x="802" y="400"/>
      <point x="835" y="510"/>
      <point x="909" y="633" type="curve" smooth="yes"/>
      <point x="943" y="692"/>
      <point x="988" y="795"/>
      <point x="988" y="883" type="curve" smooth="yes"/>
      <point x="988" y="1051"/>
      <point x="881" y="1113"/>
      <point x="794" y="1113" type="curve" smooth="yes"/>
      <point x="687" y="1113"/>
      <point x="635" y="1053"/>
      <point x="635" y="1003" type="curve" smooth="yes"/>
      <point x="635" y="957"/>
      <point x="688" y="897"/>
      <point x="688" y="860" type="curve" smooth="yes"/>
      <point x="688" y="812"/>
      <point x="651" y="787"/>
      <point x="621" y="787" type="curve" smooth="yes"/>
      <point x="597" y="787"/>
      <point x="528" y="810"/>
      <point x="528" y="919" type="curve" smooth="yes"/>
      <point x="528" y="1044"/>
      <point x="635" y="1160"/>
      <point x="830" y="1160" type="curve" smooth="yes"/>
      <point x="1011" y="1160"/>
      <point x="1143" y="1060"/>
    </contour>
    <contour>
      <point x="912" y="71" type="curve"/>
      <point x="912" y="10"/>
      <point x="863" y="-23"/>
      <point x="820" y="-23" type="curve" smooth="yes"/>
      <point x="772" y="-23"/>
      <point x="724" y="10"/>
      <point x="724" y="71" type="curve" smooth="yes"/>
      <point x="724" y="125"/>
      <point x="770" y="164"/>
      <point x="820" y="164" type="curve" smooth="yes"/>
      <point x="866" y="164"/>
      <point x="912" y="127"/>
    </contour>
    <contour>
      <point x="1639" y="628" type="line"/>
      <point x="823" y="1444" type="line"/>
      <point x="8" y="628" type="line"/>
      <point x="823" y="-186" type="line"/>
    </contour>
  </outline>
</glyph>
